# https://github.com/mikedh/trimesh
v 0.24999663 0.00000000 0.12199968
v 0.23999661 0.00000000 0.12199968
v 0.24999672 -0.11985784 0.12199455
v 0.23999673 -0.11985787 0.12199455
v 0.24999675 -0.16800478 0.17014140
v 0.23999676 -0.16800478 0.17014140
v 0.24999678 -0.16498998 0.14879376
v 0.23999679 -0.16499001 0.14879376
v 0.24999675 -0.15608546 0.13391370
v 0.23999673 -0.15608546 0.13391370
v 0.23999673 -0.14120552 0.12500924
v 0.24999678 -0.14120546 0.12500924
v -0.24999663 0.00000000 0.12199968
v -0.23999661 0.00000000 0.12199968
v -0.24999672 -0.11985784 0.12199455
v -0.23999673 -0.11985787 0.12199455
v -0.24999675 -0.16800478 0.17014140
v -0.23999676 -0.16800478 0.17014140
v -0.24999678 -0.16498998 0.14879376
v -0.23999679 -0.16499001 0.14879376
v -0.24999675 -0.15608546 0.13391370
v -0.23999673 -0.15608546 0.13391370
v -0.23999673 -0.14120552 0.12500924
v -0.24999678 -0.14120546 0.12500924
v 0.24999672 0.11985784 0.12199455
v 0.23999673 0.11985787 0.12199455
v 0.24999675 0.16800478 0.17014140
v 0.23999676 0.16800478 0.17014140
v 0.24999678 0.16498998 0.14879376
v 0.23999679 0.16499001 0.14879376
v 0.24999675 0.15608546 0.13391370
v 0.23999673 0.15608546 0.13391370
v 0.23999673 0.14120552 0.12500924
v 0.24999678 0.14120546 0.12500924
v -0.24999672 0.11985784 0.12199455
v -0.23999673 0.11985787 0.12199455
v -0.24999675 0.16800478 0.17014140
v -0.23999676 0.16800478 0.17014140
v -0.24999678 0.16498998 0.14879376
v -0.23999679 0.16499001 0.14879376
v -0.24999675 0.15608546 0.13391370
v -0.23999673 0.15608546 0.13391370
v -0.23999673 0.14120552 0.12500924
v -0.24999678 0.14120546 0.12500924
v 0.24999654 0.00000000 0.25000000
v 0.24999663 -0.10345799 0.25000000
v 0.24999659 -0.05992772 0.25000000
v 0.24999672 -0.16800515 0.25000000
v 0.23999673 -0.16667555 0.25000000
v 0.23999672 -0.16800517 0.25000000
v 0.23999664 -0.10345882 0.25000000
v 0.24499676 -0.16800515 0.25000000
v -0.24999654 0.00000000 0.25000000
v -0.24999663 -0.10345799 0.25000000
v -0.24999659 -0.05992772 0.25000000
v -0.24999672 -0.16800515 0.25000000
v -0.23999673 -0.16667555 0.25000000
v -0.23999672 -0.16800517 0.25000000
v -0.23999664 -0.10345882 0.25000000
v -0.24499676 -0.16800515 0.25000000
v -0.23999651 0.00000000 0.25000000
v 0.23999651 0.00000000 0.25000000
v 0.24999663 0.10345799 0.25000000
v 0.24999659 0.05992772 0.25000000
v 0.24999672 0.16800515 0.25000000
v 0.23999673 0.16667555 0.25000000
v 0.23999672 0.16800517 0.25000000
v 0.23999664 0.10345882 0.25000000
v 0.24499676 0.16800515 0.25000000
v -0.24999663 0.10345799 0.25000000
v -0.24999659 0.05992772 0.25000000
v -0.24999672 0.16800515 0.25000000
v -0.23999673 0.16667555 0.25000000
v -0.23999672 0.16800517 0.25000000
v -0.23999664 0.10345882 0.25000000
v -0.24499676 0.16800515 0.25000000
v 0.24999663 0.00000000 0.37800032
v 0.23999661 0.00000000 0.37800032
v 0.24999672 -0.11985784 0.37800545
v 0.23999673 -0.11985787 0.37800545
v 0.24999675 -0.16800478 0.32985860
v 0.23999676 -0.16800478 0.32985860
v 0.24999678 -0.16498998 0.35120624
v 0.23999679 -0.16499001 0.35120624
v 0.24999675 -0.15608546 0.36608630
v 0.23999673 -0.15608546 0.36608630
v 0.23999673 -0.14120552 0.37499076
v 0.24999678 -0.14120546 0.37499076
v -0.24999663 0.00000000 0.37800032
v -0.23999661 0.00000000 0.37800032
v -0.24999672 -0.11985784 0.37800545
v -0.23999673 -0.11985787 0.37800545
v -0.24999675 -0.16800478 0.32985860
v -0.23999676 -0.16800478 0.32985860
v -0.24999678 -0.16498998 0.35120624
v -0.23999679 -0.16499001 0.35120624
v -0.24999675 -0.15608546 0.36608630
v -0.23999673 -0.15608546 0.36608630
v -0.23999673 -0.14120552 0.37499076
v -0.24999678 -0.14120546 0.37499076
v 0.24999672 0.11985784 0.37800545
v 0.23999673 0.11985787 0.37800545
v 0.24999675 0.16800478 0.32985860
v 0.23999676 0.16800478 0.32985860
v 0.24999678 0.16498998 0.35120624
v 0.23999679 0.16499001 0.35120624
v 0.24999675 0.15608546 0.36608630
v 0.23999673 0.15608546 0.36608630
v 0.23999673 0.14120552 0.37499076
v 0.24999678 0.14120546 0.37499076
v -0.24999672 0.11985784 0.37800545
v -0.23999673 0.11985787 0.37800545
v -0.24999675 0.16800478 0.32985860
v -0.23999676 0.16800478 0.32985860
v -0.24999678 0.16498998 0.35120624
v -0.23999679 0.16499001 0.35120624
v -0.24999675 0.15608546 0.36608630
v -0.23999673 0.15608546 0.36608630
v -0.23999673 0.14120552 0.37499076
v -0.24999678 0.14120546 0.37499076
vn 0.70711649 -0.00000000 -0.70709708
vn -0.70711641 -0.00000000 -0.70709715
vn 0.69166224 -0.05060287 -0.72044618
vn -0.69165933 -0.05060424 -0.72044887
vn 0.69166706 -0.72044023 -0.05062167
vn -0.69166877 -0.72043854 -0.05062235
vn 0.66511004 -0.70405315 -0.24887306
vn -0.66510440 -0.70405806 -0.24887421
vn 0.65615471 -0.53360131 -0.53360158
vn -0.65615710 -0.53360067 -0.53359927
vn -0.66510553 -0.24887282 -0.70405750
vn 0.66511077 -0.24886918 -0.70405383
vn -0.70711649 0.00000000 -0.70709708
vn 0.70711641 0.00000000 -0.70709715
vn -0.69166224 -0.05060287 -0.72044618
vn 0.69165933 -0.05060424 -0.72044887
vn -0.69166707 -0.72044022 -0.05062166
vn 0.69166877 -0.72043854 -0.05062235
vn -0.66511004 -0.70405315 -0.24887306
vn 0.66510440 -0.70405806 -0.24887421
vn -0.65615471 -0.53360131 -0.53360158
vn 0.65615710 -0.53360067 -0.53359927
vn 0.66510553 -0.24887282 -0.70405750
vn -0.66511077 -0.24886918 -0.70405383
vn 0.69166224 0.05060287 -0.72044618
vn -0.69165933 0.05060424 -0.72044887
vn 0.69166707 0.72044022 -0.05062166
vn -0.69166877 0.72043854 -0.05062235
vn 0.66511004 0.70405315 -0.24887306
vn -0.66510440 0.70405806 -0.24887421
vn 0.65615471 0.53360131 -0.53360158
vn -0.65615710 0.53360067 -0.53359927
vn -0.66510553 0.24887282 -0.70405750
vn 0.66511077 0.24886918 -0.70405383
vn -0.69166224 0.05060287 -0.72044618
vn 0.69165933 0.05060424 -0.72044887
vn -0.69166706 0.72044023 -0.05062167
vn 0.69166877 0.72043854 -0.05062235
vn -0.66511004 0.70405315 -0.24887306
vn 0.66510440 0.70405806 -0.24887421
vn -0.65615471 0.53360131 -0.53360158
vn 0.65615710 0.53360067 -0.53359927
vn 0.66510553 0.24887282 -0.70405750
vn -0.66511077 0.24886918 -0.70405383
vn 1.00000000 -0.00000000 0.00000000
vn 1.00000000 0.00000113 0.00000000
vn 1.00000000 0.00000086 0.00000000
vn 0.70710614 -0.70710743 0.00000000
vn -1.00000000 0.00000503 -0.00000000
vn -0.70710869 -0.70710487 -0.00000000
vn -1.00000000 -0.00000138 0.00000000
vn 0.00000143 -1.00000000 -0.00000000
vn -1.00000000 0.00000000 0.00000000
vn -1.00000000 0.00000115 0.00000000
vn -1.00000000 0.00000085 -0.00000000
vn -0.70710614 -0.70710743 -0.00000000
vn 1.00000000 0.00000503 0.00000000
vn 0.70710869 -0.70710487 0.00000000
vn 1.00000000 -0.00000138 -0.00000000
vn -0.00000143 -1.00000000 0.00000000
vn 1.00000000 0.00000000 -0.00000000
vn -1.00000000 0.00000000 -0.00000000
vn 1.00000000 -0.00000115 0.00000000
vn 1.00000000 -0.00000085 -0.00000000
vn 0.70710614 0.70710743 -0.00000000
vn -1.00000000 -0.00000503 0.00000000
vn -0.70710869 0.70710487 0.00000000
vn -1.00000000 0.00000138 -0.00000000
vn 0.00000143 1.00000000 0.00000000
vn -1.00000000 -0.00000113 0.00000000
vn -1.00000000 -0.00000086 0.00000000
vn -0.70710614 0.70710743 0.00000000
vn 1.00000000 -0.00000503 -0.00000000
vn 0.70710869 0.70710487 -0.00000000
vn 1.00000000 0.00000138 0.00000000
vn -0.00000143 1.00000000 -0.00000000
vn 0.70711649 -0.00000000 0.70709708
vn -0.70711641 0.00000000 0.70709715
vn 0.69166224 -0.05060287 0.72044618
vn -0.69165933 -0.05060424 0.72044887
vn 0.69166706 -0.72044023 0.05062167
vn -0.69166877 -0.72043854 0.05062235
vn 0.66511004 -0.70405315 0.24887306
vn -0.66510440 -0.70405806 0.24887421
vn 0.65615471 -0.53360131 0.53360158
vn -0.65615710 -0.53360067 0.53359927
vn -0.66510553 -0.24887282 0.70405750
vn 0.66511077 -0.24886918 0.70405383
vn -0.70711649 0.00000000 0.70709708
vn 0.70711641 -0.00000000 0.70709715
vn -0.69166224 -0.05060287 0.72044618
vn 0.69165933 -0.05060424 0.72044887
vn -0.69166707 -0.72044022 0.05062166
vn 0.69166877 -0.72043854 0.05062235
vn -0.66511004 -0.70405315 0.24887306
vn 0.66510440 -0.70405806 0.24887421
vn -0.65615471 -0.53360131 0.53360158
vn 0.65615710 -0.53360067 0.53359927
vn 0.66510553 -0.24887282 0.70405750
vn -0.66511077 -0.24886918 0.70405383
vn 0.69166224 0.05060287 0.72044618
vn -0.69165933 0.05060424 0.72044887
vn 0.69166707 0.72044022 0.05062166
vn -0.69166877 0.72043854 0.05062235
vn 0.66511004 0.70405315 0.24887306
vn -0.66510440 0.70405806 0.24887421
vn 0.65615471 0.53360131 0.53360158
vn -0.65615710 0.53360067 0.53359927
vn -0.66510553 0.24887282 0.70405750
vn 0.66511077 0.24886918 0.70405383
vn -0.69166224 0.05060287 0.72044618
vn 0.69165933 0.05060424 0.72044887
vn -0.69166706 0.72044023 0.05062167
vn 0.69166877 0.72043854 0.05062235
vn -0.66511004 0.70405315 0.24887306
vn 0.66510440 0.70405806 0.24887421
vn -0.65615471 0.53360131 0.53360158
vn 0.65615710 0.53360067 0.53359927
vn 0.66510553 0.24887282 0.70405750
vn -0.66511077 0.24886918 0.70405383
f 4//4 2//2 1//1
f 45//45 47//47 3//3
f 45//45 3//3 1//1
f 1//1 3//3 4//4
f 46//46 48//48 5//5
f 47//47 46//46 5//5
f 47//47 5//5 3//3
f 5//5 6//6 8//8
f 5//5 7//7 9//9
f 8//8 7//7 5//5
f 5//5 9//9 3//3
f 9//9 10//10 11//11
f 10//10 9//9 7//7
f 11//11 12//12 9//9
f 9//9 12//12 3//3
f 12//12 11//11 4//4
f 4//4 3//3 12//12
f 2//2 4//4 11//11
f 11//11 10//10 8//8
f 2//2 11//11 8//8
f 7//7 8//8 10//10
f 52//52 50//50 6//6
f 16//16 13//13 14//14
f 55//55 53//53 13//13
f 55//55 13//13 15//15
f 13//13 16//16 15//15
f 54//54 17//17 56//56
f 54//54 55//55 15//15
f 54//54 15//15 17//17
f 17//17 20//20 18//18
f 17//17 21//21 19//19
f 20//20 17//17 19//19
f 17//17 15//15 21//21
f 21//21 23//23 22//22
f 22//22 19//19 21//21
f 23//23 21//21 24//24
f 21//21 15//15 24//24
f 24//24 16//16 23//23
f 16//16 24//24 15//15
f 14//14 23//23 16//16
f 23//23 20//20 22//22
f 14//14 20//20 23//23
f 19//19 22//22 20//20
f 60//60 18//18 58//58
f 51//51 62//62 2//2
f 26//26 1//1 2//2
f 64//64 45//45 1//1
f 64//64 1//1 25//25
f 1//1 26//26 25//25
f 63//63 27//27 65//65
f 63//63 64//64 25//25
f 63//63 25//25 27//27
f 27//27 30//30 28//28
f 27//27 31//31 29//29
f 30//30 27//27 29//29
f 27//27 25//25 31//31
f 31//31 33//33 32//32
f 32//32 29//29 31//31
f 33//33 31//31 34//34
f 31//31 25//25 34//34
f 34//34 26//26 33//33
f 26//26 34//34 25//25
f 2//2 33//33 26//26
f 33//33 30//30 32//32
f 2//2 30//30 33//33
f 29//29 32//32 30//30
f 69//69 28//28 67//67
f 36//36 14//14 13//13
f 53//53 71//71 35//35
f 53//53 35//35 13//13
f 13//13 35//35 36//36
f 70//70 72//72 37//37
f 71//71 70//70 37//37
f 71//71 37//37 35//35
f 37//37 38//38 40//40
f 37//37 39//39 41//41
f 40//40 39//39 37//37
f 37//37 41//41 35//35
f 41//41 42//42 43//43
f 42//42 41//41 39//39
f 43//43 44//44 41//41
f 41//41 44//44 35//35
f 44//44 43//43 36//36
f 36//36 35//35 44//44
f 14//14 36//36 43//43
f 43//43 42//42 40//40
f 14//14 43//43 40//40
f 39//39 40//40 42//42
f 76//76 74//74 38//38
f 68//68 2//2 62//62
f 40//40 38//38 74//74
f 40//40 74//74 73//73
f 14//14 40//40 73//73
f 14//14 73//73 75//75
f 38//38 37//37 72//72
f 38//38 72//72 76//76
f 30//30 66//66 67//67
f 30//30 67//67 28//28
f 2//2 68//68 66//66
f 2//2 66//66 30//30
f 28//28 69//69 65//65
f 28//28 65//65 27//27
f 14//14 75//75 61//61
f 14//14 61//61 59//59
f 20//20 57//57 58//58
f 20//20 58//58 18//18
f 14//14 59//59 57//57
f 14//14 57//57 20//20
f 18//18 60//60 56//56
f 18//18 56//56 17//17
f 8//8 6//6 50//50
f 8//8 50//50 49//49
f 2//2 8//8 49//49
f 2//2 49//49 51//51
f 6//6 5//5 48//48
f 6//6 48//48 52//52
f 80//80 77//77 78//78
f 45//45 77//77 79//79
f 45//45 79//79 47//47
f 77//77 80//80 79//79
f 46//46 81//81 48//48
f 47//47 79//79 81//81
f 47//47 81//81 46//46
f 81//81 84//84 82//82
f 81//81 85//85 83//83
f 84//84 81//81 83//83
f 81//81 79//79 85//85
f 85//85 87//87 86//86
f 86//86 83//83 85//85
f 87//87 85//85 88//88
f 85//85 79//79 88//88
f 88//88 80//80 87//87
f 80//80 88//88 79//79
f 78//78 87//87 80//80
f 87//87 84//84 86//86
f 78//78 84//84 87//87
f 83//83 86//86 84//84
f 52//52 82//82 50//50
f 92//92 90//90 89//89
f 55//55 91//91 89//89
f 55//55 89//89 53//53
f 89//89 91//91 92//92
f 54//54 56//56 93//93
f 54//54 93//93 91//91
f 54//54 91//91 55//55
f 93//93 94//94 96//96
f 93//93 95//95 97//97
f 96//96 95//95 93//93
f 93//93 97//97 91//91
f 97//97 98//98 99//99
f 98//98 97//97 95//95
f 99//99 100//100 97//97
f 97//97 100//100 91//91
f 100//100 99//99 92//92
f 92//92 91//91 100//100
f 90//90 92//92 99//99
f 99//99 98//98 96//96
f 90//90 99//99 96//96
f 95//95 96//96 98//98
f 60//60 58//58 94//94
f 51//51 78//78 62//62
f 102//102 78//78 77//77
f 64//64 101//101 77//77
f 64//64 77//77 45//45
f 77//77 101//101 102//102
f 63//63 65//65 103//103
f 63//63 103//103 101//101
f 63//63 101//101 64//64
f 103//103 104//104 106//106
f 103//103 105//105 107//107
f 106//106 105//105 103//103
f 103//103 107//107 101//101
f 107//107 108//108 109//109
f 108//108 107//107 105//105
f 109//109 110//110 107//107
f 107//107 110//110 101//101
f 110//110 109//109 102//102
f 102//102 101//101 110//110
f 78//78 102//102 109//109
f 109//109 108//108 106//106
f 78//78 109//109 106//106
f 105//105 106//106 108//108
f 69//69 67//67 104//104
f 112//112 89//89 90//90
f 53//53 89//89 111//111
f 53//53 111//111 71//71
f 89//89 112//112 111//111
f 70//70 113//113 72//72
f 71//71 111//111 113//113
f 71//71 113//113 70//70
f 113//113 116//116 114//114
f 113//113 117//117 115//115
f 116//116 113//113 115//115
f 113//113 111//111 117//117
f 117//117 119//119 118//118
f 118//118 115//115 117//117
f 119//119 117//117 120//120
f 117//117 111//111 120//120
f 120//120 112//112 119//119
f 112//112 120//120 111//111
f 90//90 119//119 112//112
f 119//119 116//116 118//118
f 90//90 116//116 119//119
f 115//115 118//118 116//116
f 76//76 114//114 74//74
f 68//68 62//62 78//78
f 116//116 73//73 74//74
f 116//116 74//74 114//114
f 90//90 75//75 73//73
f 90//90 73//73 116//116
f 114//114 76//76 72//72
f 114//114 72//72 113//113
f 106//106 104//104 67//67
f 106//106 67//67 66//66
f 78//78 106//106 66//66
f 78//78 66//66 68//68
f 104//104 103//103 65//65
f 104//104 65//65 69//69
f 90//90 61//61 75//75
f 90//90 59//59 61//61
f 96//96 94//94 58//58
f 96//96 58//58 57//57
f 90//90 96//96 57//57
f 90//90 57//57 59//59
f 94//94 93//93 56//56
f 94//94 56//56 60//60
f 84//84 49//49 50//50
f 84//84 50//50 82//82
f 78//78 51//51 49//49
f 78//78 49//49 84//84
f 82//82 52//52 48//48
f 82//82 48//48 81//81

