# https://github.com/mikedh/trimesh
v 0.19999999 0.22509700 0.50199729
v 0.19999999 0.22509700 0.50199729
v 0.19999999 0.23026627 0.50148100
v 0.19999999 0.23026627 0.50148100
v -0.19999996 0.22509697 0.50199741
v -0.19999996 0.22509697 0.50199741
v 0.19999999 -0.00000113 0.50199980
v 0.19999999 -0.00000113 0.50199980
v 0.19999999 0.22499889 0.49999982
v 0.19999999 0.22499889 0.49999982
v 0.19999999 0.22987613 0.49951941
v 0.19999999 0.22987613 0.49951941
v -0.19999996 0.22499886 0.49999982
v -0.19999996 0.22499886 0.49999982
v 0.19999999 -0.00000113 0.49999970
v 0.19999999 -0.00000113 0.49999970
v -0.19999996 -0.00000116 0.49999982
v -0.19999996 -0.00000116 0.49999982
v 0.19999999 -0.22500113 0.49999982
v 0.19999999 -0.22500113 0.49999982
v -0.19999996 -0.22500116 0.49999982
v -0.19999996 -0.22500116 0.49999982
v 0.19999999 -0.22987840 0.49951941
v 0.19999999 -0.22987840 0.49951941
v 0.19999999 -0.22509930 0.50199729
v 0.19999999 -0.22509930 0.50199729
v -0.19999996 -0.22509930 0.50199753
v -0.19999996 -0.22509930 0.50199753
v 0.19999999 -0.23026854 0.50148100
v 0.19999999 -0.23026854 0.50148100
v -0.19999996 -0.23026854 0.50148112
v -0.19999996 -0.23026854 0.50148112
v 0.20000002 -0.23533359 0.49994451
v 0.20000002 -0.23533359 0.49994451
v -0.19999996 -0.23533359 0.49994463
v -0.19999996 -0.23533359 0.49994463
v 0.20000002 -0.24000153 0.49744946
v 0.20000002 -0.24000153 0.49744946
v 0.20000002 -0.23456821 0.49809676
v 0.20000002 -0.23456821 0.49809676
v -0.19999996 -0.23456821 0.49809688
v -0.19999996 -0.23456821 0.49809688
v 0.20000002 -0.23889038 0.49578649
v 0.20000002 -0.23889038 0.49578649
v -0.19999999 -0.23889044 0.49578649
v -0.19999999 -0.23889044 0.49578649
v 0.20000002 -0.24267879 0.49267739
v 0.20000002 -0.24267879 0.49267739
v 0.20000002 -0.24267879 0.49267739
v -0.19999999 -0.24267885 0.49267751
v -0.19999999 -0.24267885 0.49267751
v -0.19999999 -0.24267885 0.49267751
v 0.20000002 -0.24578789 0.48888892
v 0.20000002 -0.24578789 0.48888892
v 0.20000002 -0.24409300 0.49409157
v 0.20000002 -0.24409300 0.49409157
v 0.20000002 -0.24409300 0.49409157
v -0.19999999 -0.24409306 0.49409169
v -0.19999999 -0.24409306 0.49409169
v -0.19999999 -0.24409306 0.49409169
v 0.20000002 -0.24745080 0.49000007
v 0.20000002 -0.24745080 0.49000007
v -0.19999993 -0.24745086 0.49000031
v -0.19999993 -0.24745086 0.49000031
v 0.20000002 -0.24994585 0.48533219
v 0.20000002 -0.24994585 0.48533219
v -0.19999993 -0.24994591 0.48533231
v -0.19999993 -0.24994591 0.48533231
v 0.20000002 -0.25148228 0.48026711
v 0.20000002 -0.25148228 0.48026711
v 0.20000002 -0.24809805 0.48456687
v 0.20000002 -0.24809805 0.48456687
v -0.19999993 -0.24809816 0.48456687
v -0.19999993 -0.24809816 0.48456687
v 0.20000002 -0.24952075 0.47987694
v 0.20000002 -0.24952075 0.47987694
v -0.19999993 -0.24952081 0.47987705
v -0.19999993 -0.24952081 0.47987705
v 0.19999999 -0.25000110 0.47499985
v 0.19999999 -0.25000110 0.47499985
v -0.19999996 -0.25000110 0.47499985
v -0.19999996 -0.25000110 0.47499985
v 0.19999999 -0.24952075 0.47012252
v 0.19999999 -0.24952075 0.47012252
v 0.19999999 -0.25200114 0.47499973
v 0.19999999 -0.25200114 0.47499973
v -0.19999996 -0.25200114 0.47499985
v -0.19999996 -0.25200114 0.47499985
v 0.19999999 -0.25148228 0.46973234
v 0.19999999 -0.25148228 0.46973234
v -0.19999996 -0.25148234 0.46973234
v -0.19999996 -0.25148234 0.46973234
v 0.19999999 -0.24994585 0.46466726
v 0.19999999 -0.24994585 0.46466726
v -0.19999996 -0.24994591 0.46466738
v -0.19999996 -0.24994591 0.46466738
v 0.19999999 -0.24745080 0.45999938
v 0.19999999 -0.24745080 0.45999938
v 0.19999999 -0.24809811 0.46543270
v 0.19999999 -0.24809811 0.46543270
v -0.19999996 -0.24809816 0.46543270
v -0.19999996 -0.24809816 0.46543270
v 0.19999999 -0.24578789 0.46111053
v 0.19999999 -0.24578789 0.46111053
v -0.19999996 -0.24578789 0.46111065
v -0.19999996 -0.24578789 0.46111065
v 0.19999999 -0.24267879 0.45732206
v 0.19999999 -0.24267879 0.45732206
v 0.19999999 -0.24267879 0.45732206
v -0.19999996 -0.24267879 0.45732218
v -0.19999996 -0.24267879 0.45732218
v -0.19999996 -0.24267879 0.45732218
v 0.19999999 -0.23889035 0.45421308
v 0.19999999 -0.23889035 0.45421308
v 0.19999999 -0.24409300 0.45590788
v 0.19999999 -0.24409300 0.45590788
v 0.19999999 -0.24409300 0.45590788
v -0.19999996 -0.24409303 0.45590800
v -0.19999996 -0.24409303 0.45590800
v -0.19999996 -0.24409303 0.45590800
v 0.19999999 -0.24000150 0.45254999
v 0.19999999 -0.24000150 0.45254999
v -0.19999996 -0.24000150 0.45255011
v -0.19999996 -0.24000150 0.45255011
v 0.20000002 -0.23533356 0.45005506
v 0.20000002 -0.23533356 0.45005506
v -0.19999999 -0.23533359 0.45005506
v -0.19999999 -0.23533359 0.45005506
v 0.20000002 -0.23026857 0.44851857
v 0.20000002 -0.23026857 0.44851857
v 0.20000002 -0.23456818 0.45190269
v 0.20000002 -0.23456818 0.45190269
v -0.19999999 -0.23456821 0.45190293
v -0.19999999 -0.23456821 0.45190293
v 0.20000002 -0.22987837 0.45048016
v 0.20000002 -0.22987837 0.45048016
v -0.19999999 -0.22987837 0.45048016
v -0.19999999 -0.22987837 0.45048016
v 0.20000002 -0.22500107 0.44999975
v 0.20000002 -0.22500107 0.44999975
v -0.19999999 -0.22500110 0.44999987
v -0.19999999 -0.22500110 0.44999987
v 0.20000002 -0.00000110 0.44999975
v 0.20000002 -0.00000110 0.44999975
v 0.20000002 -0.22509924 0.44800216
v 0.20000002 -0.22509924 0.44800216
v -0.19999999 -0.22509927 0.44800228
v -0.19999999 -0.22509927 0.44800228
v 0.20000002 -0.00000110 0.44799978
v 0.20000002 -0.00000110 0.44799978
v 0.20000002 0.22509700 0.44800216
v 0.20000002 0.22509700 0.44800216
v -0.19999999 -0.00000113 0.44799989
v -0.19999999 -0.00000113 0.44799989
v -0.19999999 0.22509697 0.44800228
v -0.19999999 0.22509697 0.44800228
v -0.19999999 -0.00000116 0.44999987
v -0.19999999 -0.00000116 0.44999987
v -0.19999999 0.22499883 0.44999987
v -0.19999999 0.22499883 0.44999987
v 0.20000002 0.22499883 0.44999975
v 0.20000002 0.22499883 0.44999975
v -0.19999999 0.22987610 0.45048028
v -0.19999999 0.22987610 0.45048028
v 0.19999996 0.22987610 0.45048016
v 0.19999996 0.22987610 0.45048016
v -0.19999999 0.23456591 0.45190281
v -0.19999999 0.23456591 0.45190281
v -0.19999999 0.23026627 0.44851869
v -0.19999999 0.23026627 0.44851869
v 0.19999996 0.23026630 0.44851857
v 0.19999996 0.23026630 0.44851857
v -0.19999999 0.23533130 0.45005518
v -0.19999999 0.23533130 0.45005518
v 0.19999996 0.23533130 0.45005506
v 0.19999996 0.23533130 0.45005506
v -0.19999996 0.23999926 0.45255023
v -0.19999996 0.23999926 0.45255023
v 0.19999999 0.23999926 0.45255011
v 0.19999999 0.23999926 0.45255011
v -0.19999996 0.24409074 0.45590800
v -0.19999996 0.24409074 0.45590800
v -0.19999996 0.24409074 0.45590800
v -0.19999996 0.23888814 0.45421308
v -0.19999996 0.23888814 0.45421308
v 0.19999999 0.23888814 0.45421308
v 0.19999999 0.23888814 0.45421308
v -0.19999996 0.24267650 0.45732218
v -0.19999996 0.24267650 0.45732218
v -0.19999996 0.24267650 0.45732218
v 0.19999999 0.24267650 0.45732206
v 0.19999999 0.24267650 0.45732206
v 0.19999999 0.24267650 0.45732206
v -0.20000002 0.24578556 0.46111065
v -0.20000002 0.24578556 0.46111065
v 0.19999999 0.24578556 0.46111041
v 0.19999999 0.24578556 0.46111041
v -0.20000002 0.24809581 0.46543282
v -0.20000002 0.24809581 0.46543282
v -0.20000002 0.24744853 0.45999950
v -0.20000002 0.24744853 0.45999950
v 0.19999996 0.24744853 0.45999938
v 0.19999996 0.24744853 0.45999938
v -0.20000002 0.24994358 0.46466738
v -0.20000002 0.24994358 0.46466738
v 0.19999996 0.24994358 0.46466726
v 0.19999996 0.24994358 0.46466726
v -0.20000002 0.25148007 0.46973246
v -0.20000002 0.25148007 0.46973246
v 0.19999996 0.25148010 0.46973234
v 0.19999996 0.25148010 0.46973234
v -0.20000002 0.25199887 0.47499996
v -0.20000002 0.25199887 0.47499996
v -0.20000002 0.24951848 0.47012264
v -0.20000002 0.24951848 0.47012264
v 0.19999996 0.24951851 0.47012252
v 0.19999996 0.24951851 0.47012252
v -0.20000002 0.24999881 0.47499985
v -0.20000002 0.24999881 0.47499985
v 0.19999996 0.24999884 0.47499973
v 0.19999996 0.24999884 0.47499973
v -0.19999999 0.24951851 0.47987705
v -0.19999999 0.24951851 0.47987705
v 0.19999999 0.24951851 0.47987705
v 0.19999999 0.24951851 0.47987705
v -0.19999999 0.24809584 0.48456699
v -0.19999999 0.24809584 0.48456699
v -0.19999999 0.25148010 0.48026735
v -0.19999999 0.25148010 0.48026735
v 0.19999999 0.25148010 0.48026723
v 0.19999999 0.25148010 0.48026723
v -0.19999999 0.24994361 0.48533231
v -0.19999999 0.24994361 0.48533231
v 0.19999999 0.24994361 0.48533231
v 0.19999999 0.24994361 0.48533231
v -0.19999999 0.24744853 0.49000019
v -0.19999999 0.24744853 0.49000019
v 0.19999999 0.24744850 0.49000019
v 0.19999999 0.24744850 0.49000019
v -0.19999999 0.24409071 0.49409169
v -0.19999999 0.24409071 0.49409169
v -0.19999999 0.24409071 0.49409169
v -0.19999999 0.24578559 0.48888904
v -0.19999999 0.24578559 0.48888904
v 0.20000002 0.24578559 0.48888904
v 0.20000002 0.24578559 0.48888904
v -0.19999999 0.24267653 0.49267751
v -0.19999999 0.24267653 0.49267751
v -0.19999999 0.24267653 0.49267751
v 0.20000002 0.24267653 0.49267739
v 0.20000002 0.24267653 0.49267739
v 0.20000002 0.24267653 0.49267739
v -0.19999999 0.23888808 0.49578661
v -0.19999999 0.23888808 0.49578661
v 0.20000002 0.23888808 0.49578649
v 0.20000002 0.23888808 0.49578649
v -0.19999996 0.23456594 0.49809688
v -0.19999996 0.23456594 0.49809688
v -0.19999999 0.23999923 0.49744958
v -0.19999999 0.23999923 0.49744958
v 0.20000002 0.23999926 0.49744946
v 0.20000002 0.23999926 0.49744946
v -0.19999996 0.23533130 0.49994463
v -0.19999996 0.23533130 0.49994463
v 0.19999999 0.23533133 0.49994451
v 0.19999999 0.23533133 0.49994451
v -0.19999996 0.23026624 0.50148112
v -0.19999996 0.23026624 0.50148112
v -0.19999996 0.22987610 0.49951953
v -0.19999996 0.22987610 0.49951953
v 0.19999999 0.23456597 0.49809664
v 0.19999999 0.23456597 0.49809664
v 0.20000002 0.24409071 0.49409169
v 0.20000002 0.24409071 0.49409169
v 0.20000002 0.24409071 0.49409169
v 0.19999999 0.24809584 0.48456687
v 0.19999999 0.24809584 0.48456687
v 0.19999996 0.25199890 0.47499973
v 0.19999996 0.25199890 0.47499973
v 0.19999996 0.24809581 0.46543270
v 0.19999996 0.24809581 0.46543270
v 0.19999999 0.24409074 0.45590788
v 0.19999999 0.24409074 0.45590788
v 0.19999999 0.24409074 0.45590788
v 0.19999996 0.23456591 0.45190269
v 0.19999996 0.23456591 0.45190269
v -0.19999999 -0.23026857 0.44851857
v -0.19999999 -0.23026857 0.44851857
v -0.20000002 -0.23889038 0.45421308
v -0.20000002 -0.23889038 0.45421308
v -0.19999996 -0.24745086 0.45999938
v -0.19999996 -0.24745086 0.45999938
v -0.19999996 -0.24952081 0.47012252
v -0.19999996 -0.24952081 0.47012252
v -0.19999993 -0.25148240 0.48026723
v -0.19999993 -0.25148240 0.48026723
v -0.19999999 -0.24578789 0.48888916
v -0.19999999 -0.24578789 0.48888916
v -0.19999999 -0.24000159 0.49744946
v -0.19999999 -0.24000159 0.49744946
v -0.19999996 -0.22987840 0.49951941
v -0.19999996 -0.22987840 0.49951941
v -0.19999996 -0.00000116 0.50199980
v -0.19999996 -0.00000116 0.50199980
vn 0.00000019 0.04975874 0.99876127
vn 1.00000000 0.00000000 0.00000000
vn 0.00000028 0.19576542 0.98065075
vn 1.00000000 0.00000000 0.00000000
vn 0.00000029 0.04975856 0.99876128
vn -1.00000000 0.00000000 0.00000000
vn -0.00000000 0.00000000 1.00000000
vn 1.00000000 0.00000000 0.00000000
vn -0.00000024 -0.04907220 -0.99879523
vn 1.00000000 0.00000000 0.00000000
vn -0.00000042 -0.19510593 -0.98078218
vn 1.00000000 0.00000000 0.00000000
vn 0.00000000 -0.04906038 -0.99879581
vn -1.00000000 0.00000000 0.00000000
vn -0.00000030 -0.00000000 -1.00000000
vn 1.00000000 0.00000000 0.00000000
vn -0.00000010 -0.00000000 -1.00000000
vn -1.00000000 0.00000000 0.00000000
vn -0.00000010 0.04907199 -0.99879524
vn 1.00000000 0.00000000 0.00000000
vn -0.00000000 0.04907247 -0.99879522
vn -1.00000000 0.00000000 0.00000000
vn -0.00000014 0.19509527 -0.98078430
vn 1.00000000 0.00000300 0.00000060
vn 0.00000025 -0.04975903 0.99876125
vn 1.00000000 0.00000000 0.00000000
vn 0.00000060 -0.04976998 0.99876071
vn -1.00000000 0.00000000 0.00000000
vn 0.00000029 -0.19576586 0.98065067
vn 1.00000000 0.00000290 0.00000072
vn 0.00000044 -0.19577679 0.98064848
vn -1.00000000 0.00000000 0.00000000
vn 0.00000018 -0.38268434 0.92387916
vn 1.00000000 0.00000261 0.00000108
vn 0.00000028 -0.38269099 0.92387640
vn -1.00000000 0.00000261 0.00000108
vn 0.00000020 -0.55557546 0.83146612
vn 1.00000000 0.00000000 0.00000000
vn -0.00000018 0.38268636 -0.92387832
vn 1.00000000 0.00000270 0.00000097
vn -0.00000013 0.38268288 -0.92387976
vn -1.00000000 0.00000260 0.00000122
vn -0.00000020 0.55557408 -0.83146704
vn 1.00000000 0.00000000 0.00000000
vn -0.00000018 0.55557298 -0.83146778
vn -1.00000000 0.00000254 0.00000170
vn -0.00000038 0.77301247 -0.63439082
vn -0.00000032 0.63439675 -0.77300761
vn 1.00000000 0.00000000 0.00000000
vn -0.00000030 0.77300868 -0.63439545
vn -0.00000010 0.63438233 -0.77301945
vn -1.00000000 -0.00000569 -0.00000099
vn -0.00000032 0.83147194 -0.55556676
vn 1.00000000 0.00000000 0.00000000
vn 0.00000049 -0.77301134 0.63439220
vn 0.00000032 -0.63440496 0.77300087
vn 1.00000000 0.00000000 0.00000000
vn 0.00000030 -0.77300235 0.63440315
vn 0.00000010 -0.63439162 0.77301182
vn -1.00000000 -0.00000400 -0.00000400
vn 0.00000039 -0.83146926 0.55557076
vn 1.00000000 0.00000000 0.00000000
vn 0.00000036 -0.83146802 0.55557261
vn -1.00000000 -0.00002286 0.00001314
vn 0.00000032 -0.92388060 0.38268086
vn 1.00000000 0.00000000 0.00000000
vn 0.00000032 -0.92388056 0.38268096
vn -1.00000000 -0.00000509 -0.00000243
vn 0.00000020 -0.98078488 0.19509233
vn 1.00000000 -0.00000045 -0.00000295
vn -0.00000025 0.92387946 -0.38268361
vn 1.00000000 0.00000000 0.00000000
vn -0.00000028 0.92388047 -0.38268117
vn -1.00000000 -0.00000234 -0.00000564
vn -0.00000012 0.98078468 -0.19509335
vn 1.00000000 -0.00000060 -0.00000300
vn -0.00000023 0.98078659 -0.19508373
vn -1.00000000 0.00000043 0.00000284
vn -0.00000007 1.00000000 -0.00000262
vn 1.00000000 -0.00000013 -0.00000287
vn -0.00000009 1.00000000 -0.00000106
vn -1.00000000 0.00000000 0.00000306
vn -0.00000015 0.98078561 0.19508865
vn 1.00000000 0.00000000 0.00000000
vn 0.00000009 -1.00000000 0.00000021
vn 1.00000000 0.00000000 -0.00000283
vn 0.00000015 -1.00000000 -0.00000456
vn -1.00000000 0.00000014 0.00000298
vn 0.00000010 -0.98078489 -0.19509230
vn 1.00000000 0.00000000 0.00000000
vn 0.00000006 -0.98078555 -0.19508895
vn -1.00000000 0.00000000 0.00000000
vn 0.00000009 -0.92388062 -0.38268081
vn 1.00000000 0.00000000 0.00000000
vn 0.00000007 -0.92388141 -0.38267890
vn -1.00000000 0.00000000 0.00000000
vn 0.00000000 -0.83146918 -0.55557089
vn 1.00000000 0.00000000 0.00000000
vn -0.00000000 0.92388044 0.38268125
vn 1.00000000 0.00000000 0.00000000
vn -0.00000014 0.92387623 0.38269141
vn -1.00000000 0.00000000 0.00000000
vn 0.00000017 0.83147211 0.55556649
vn 1.00000000 0.00000000 0.00000000
vn 0.00000003 0.83146601 0.55557562
vn -1.00000000 0.00000000 0.00000000
vn 0.00000019 0.77301250 0.63439078
vn -0.00000005 0.63437937 0.77302187
vn 1.00000000 0.00000000 0.00000000
vn 0.00000019 0.77301250 0.63439078
vn 0.00000023 0.63439675 0.77300761
vn -1.00000000 -0.00000325 -0.00000182
vn 0.00000022 0.55557334 0.83146754
vn 1.00000000 -0.00000254 0.00000170
vn -0.00000013 -0.77301142 -0.63439211
vn -0.00000023 -0.63440218 -0.77300315
vn 1.00000000 0.00000000 0.00000000
vn 0.00000011 -0.77299969 -0.63440640
vn -0.00000018 -0.63439944 -0.77300540
vn -1.00000000 0.00000000 0.00000000
vn -0.00000010 -0.55556570 -0.83147264
vn 1.00000000 -0.00000256 0.00000154
vn -0.00000022 -0.55557353 -0.83146741
vn -1.00000000 -0.00002030 -0.00001775
vn 0.00000002 -0.38267627 -0.92388250
vn 1.00000000 -0.00000261 0.00000108
vn -0.00000012 -0.38268585 -0.92387853
vn -1.00000000 -0.00000027 -0.00000381
vn -0.00000014 -0.19577756 -0.98064833
vn 1.00000000 0.00000000 0.00000000
vn 0.00000025 0.38268524 0.92387878
vn 1.00000000 -0.00000260 0.00000122
vn 0.00000026 0.38268649 0.92387826
vn -1.00000000 0.00000282 -0.00000117
vn 0.00000014 0.19508338 0.98078666
vn 1.00000000 0.00000000 0.00000000
vn 0.00000027 0.19509368 0.98078461
vn -1.00000000 0.00000000 0.00000000
vn 0.00000029 0.04907187 0.99879525
vn 1.00000000 0.00000000 0.00000000
vn 0.00000015 0.04906018 0.99879582
vn -1.00000000 0.00000000 0.00000000
vn 0.00000030 0.00000000 1.00000000
vn 1.00000000 0.00000000 0.00000000
vn -0.00000029 -0.04976939 -0.99876074
vn 1.00000000 0.00000000 0.00000000
vn -0.00000015 -0.04975837 -0.99876129
vn -1.00000000 0.00000000 0.00000000
vn -0.00000030 0.00000000 -1.00000000
vn 1.00000000 0.00000000 0.00000000
vn -0.00000030 0.04976950 -0.99876073
vn 1.00000000 0.00000597 0.00000050
vn -0.00000030 0.00000000 -1.00000000
vn -1.00000000 0.00000000 0.00000000
vn -0.00000030 0.04976967 -0.99876072
vn -1.00000000 0.00000000 0.00000000
vn 0.00000030 0.00000000 1.00000000
vn -1.00000000 0.00000000 0.00000000
vn 0.00000030 -0.04907217 0.99879524
vn -1.00000000 0.00000000 0.00000000
vn 0.00000030 -0.04907198 0.99879524
vn 1.00000000 0.00000608 0.00000030
vn 0.00000029 -0.19508376 0.98078659
vn -1.00000000 0.00000000 0.00000000
vn 0.00000029 -0.19508338 0.98078666
vn 1.00000000 0.00000575 0.00000094
vn 0.00000014 -0.38267263 0.92388401
vn -1.00000000 0.00000260 0.00000122
vn -0.00000030 0.19577713 -0.98064842
vn -1.00000000 0.00000000 0.00000000
vn -0.00000031 0.19577758 -0.98064833
vn 1.00000000 0.00000566 0.00000113
vn -0.00000028 0.38268348 -0.92387951
vn -1.00000000 0.00000261 0.00000108
vn -0.00000029 0.38268455 -0.92387907
vn 1.00000000 -0.00000270 -0.00000127
vn -0.00000025 0.55556704 -0.83147174
vn -1.00000000 0.00000256 0.00000154
vn -0.00000025 0.55556732 -0.83147156
vn 1.00000000 -0.00000235 -0.00000157
vn -0.00000023 0.63439150 -0.77301191
vn -0.00000019 0.77301142 -0.63439211
vn -1.00000000 -0.00000400 -0.00000400
vn 0.00000011 -0.55557475 0.83146659
vn -1.00000000 0.00000254 0.00000170
vn 0.00000013 -0.55557616 0.83146565
vn 1.00000000 -0.00000246 -0.00000148
vn 0.00000023 -0.63440271 0.77300272
vn 0.00000038 -0.77301541 0.63438724
vn -1.00000000 -0.00000387 -0.00000424
vn 0.00000000 -0.63438829 0.77301455
vn 0.00000019 -0.77300570 0.63439908
vn 1.00000000 0.00000000 0.00000000
vn 0.00000026 -0.83147219 0.55556637
vn -1.00000000 -0.00000339 -0.00000508
vn 0.00000024 -0.83147075 0.55556854
vn 1.00000000 0.00001402 -0.00000285
vn 0.00000015 -0.92387833 0.38268633
vn -1.00000000 0.00000000 0.00000000
vn -0.00000017 0.83146943 -0.55557051
vn -1.00000000 -0.00000355 -0.00000481
vn -0.00000017 0.83146912 -0.55557098
vn 1.00000000 0.00001356 -0.00000314
vn -0.00000015 0.92387855 -0.38268581
vn -1.00000000 0.00000000 0.00000000
vn -0.00000011 0.92387751 -0.38268831
vn 1.00000000 0.00000000 0.00000000
vn -0.00000015 0.98078515 -0.19509096
vn -1.00000000 0.00000000 0.00000000
vn -0.00000010 0.98078441 -0.19509469
vn 1.00000000 0.00000000 0.00000000
vn -0.00000005 1.00000000 -0.00000182
vn -1.00000000 -0.00000000 0.00000283
vn 0.00000013 -0.98078541 0.19508969
vn -1.00000000 0.00000000 0.00000000
vn 0.00000010 -0.98078484 0.19509256
vn 1.00000000 0.00000000 0.00000000
vn 0.00000005 -1.00000000 0.00000318
vn -1.00000000 -0.00000013 0.00000287
vn 0.00000007 -1.00000000 0.00000102
vn 1.00000000 0.00000000 -0.00000306
vn -0.00000004 -0.98078671 -0.19508312
vn -1.00000000 -0.00000060 0.00000300
vn 0.00000002 -0.98078560 -0.19508871
vn 1.00000000 0.00000043 -0.00000284
vn -0.00000004 -0.92387750 -0.38268834
vn -1.00000000 0.00000000 0.00000000
vn 0.00000002 0.98078488 0.19509233
vn -1.00000000 -0.00000045 0.00000295
vn 0.00000004 0.98078512 0.19509111
vn 1.00000000 0.00000055 -0.00000277
vn 0.00000003 0.92387634 0.38269114
vn -1.00000000 0.00000000 0.00000000
vn 0.00000004 0.92387664 0.38269042
vn 1.00000000 0.00000254 -0.00000122
vn 0.00000003 0.83146664 0.55557467
vn -1.00000000 0.00000000 0.00000000
vn 0.00000003 0.83146637 0.55557508
vn 1.00000000 0.00001143 0.00000657
vn 0.00000018 0.63440487 0.77300094
vn 0.00000000 0.77300866 0.63439547
vn -1.00000000 0.00000000 0.00000000
vn -0.00000009 -0.83146872 -0.55557157
vn -1.00000000 0.00000000 0.00000000
vn -0.00000007 -0.83146752 -0.55557336
vn 1.00000000 0.00001118 0.00000686
vn -0.00000023 -0.63439377 -0.77301006
vn -0.00000019 -0.77301549 -0.63438715
vn -1.00000000 0.00000000 0.00000000
vn -0.00000023 -0.63439377 -0.77301006
vn -0.00000000 -0.77300577 -0.63439899
vn 1.00000000 0.00000285 -0.00000049
vn -0.00000036 -0.55557382 -0.83146721
vn -1.00000000 -0.00000246 0.00000148
vn -0.00000025 -0.55556617 -0.83147232
vn 1.00000000 -0.00000254 0.00000170
vn -0.00000038 -0.38268687 -0.92387811
vn -1.00000000 -0.00000282 0.00000117
vn 0.00000021 0.55557566 0.83146599
vn -1.00000000 -0.00000235 0.00000157
vn 0.00000012 0.55556998 0.83146978
vn 1.00000000 -0.00000256 0.00000154
vn 0.00000025 0.38268426 0.92387919
vn -1.00000000 -0.00000270 0.00000127
vn 0.00000025 0.38268428 0.92387918
vn 1.00000000 -0.00000261 0.00000108
vn 0.00000028 0.19576540 0.98065076
vn -1.00000000 0.00000000 0.00000000
vn -0.00000013 -0.19508281 -0.98078677
vn -1.00000000 0.00000000 0.00000000
vn -0.00000041 -0.38268905 -0.92387720
vn 1.00000000 -0.00000260 0.00000122
vn 0.00000000 0.63439427 0.77300965
vn 0.00000006 0.77301140 0.63439214
vn 1.00000000 0.00000200 -0.00000200
vn -0.00000007 -0.92387828 -0.38268646
vn 1.00000000 0.00000117 -0.00000282
vn -0.00000006 1.00000000 -0.00000096
vn 1.00000000 0.00000014 -0.00000298
vn 0.00000018 -0.92387932 0.38268395
vn 1.00000000 0.00000185 -0.00000022
vn -0.00000023 0.63439150 -0.77301191
vn -0.00000019 0.77301142 -0.63439211
vn 1.00000000 0.00000186 -0.00000061
vn 0.00000028 -0.38268280 0.92387980
vn 1.00000000 -0.00000282 -0.00000117
vn 0.00000001 -0.19576594 -0.98065065
vn -1.00000000 0.00000000 0.00000000
vn 0.00000010 0.55556500 0.83147311
vn -1.00000000 -0.00002126 -0.00001748
vn 0.00000005 -0.83146697 -0.55557419
vn -1.00000000 0.00000000 0.00000000
vn -0.00000007 0.98078678 0.19508276
vn -1.00000000 0.00000000 0.00000000
vn 0.00000028 -0.98078607 0.19508636
vn -1.00000000 0.00000055 0.00000277
vn -0.00000029 0.83147044 -0.55556900
vn -1.00000000 -0.00002236 0.00001372
vn 0.00000018 -0.55557444 0.83146680
vn -1.00000000 0.00000256 0.00000154
vn -0.00000000 0.19508405 -0.98078653
vn -1.00000000 0.00000000 0.00000000
vn 0.00000030 0.00000018 1.00000000
vn -1.00000000 0.00000000 0.00000000
f 1//1 3//3 267//267
f 1//1 267//267 5//5
f 4//4 2//2 10//10
f 4//4 10//10 12//12
f 1//1 5//5 303//303
f 1//1 303//303 7//7
f 2//2 8//8 16//16
f 2//2 16//16 10//10
f 269//269 11//11 9//9
f 269//269 9//9 13//13
f 17//17 13//13 9//9
f 17//17 9//9 15//15
f 17//17 15//15 19//19
f 17//17 19//19 21//21
f 8//8 26//26 20//20
f 8//8 20//20 16//16
f 301//301 21//21 19//19
f 301//301 19//19 23//23
f 26//26 30//30 24//24
f 26//26 24//24 20//20
f 25//25 27//27 31//31
f 25//25 31//31 29//29
f 25//25 7//7 303//303
f 25//25 303//303 27//27
f 29//29 31//31 35//35
f 29//29 35//35 33//33
f 30//30 34//34 40//40
f 30//30 40//40 24//24
f 33//33 35//35 299//299
f 33//33 299//299 37//37
f 34//34 38//38 44//44
f 34//34 44//44 40//40
f 41//41 301//301 23//23
f 41//41 23//23 39//39
f 45//45 41//41 39//39
f 45//45 39//39 43//43
f 51//51 45//45 43//43
f 51//51 43//43 48//48
f 38//38 57//57 49//49
f 38//38 49//49 44//44
f 297//297 50//50 47//47
f 297//297 47//47 53//53
f 57//57 62//62 54//54
f 57//57 54//54 49//49
f 37//37 299//299 59//59
f 37//37 59//59 56//56
f 55//55 58//58 63//63
f 55//55 63//63 61//61
f 61//61 63//63 67//67
f 61//61 67//67 65//65
f 62//62 66//66 72//72
f 62//62 72//72 54//54
f 65//65 67//67 295//295
f 65//65 295//295 69//69
f 66//66 70//70 76//76
f 66//66 76//76 72//72
f 73//73 297//297 53//53
f 73//73 53//53 71//71
f 77//77 73//73 71//71
f 77//77 71//71 75//75
f 81//81 77//77 75//75
f 81//81 75//75 79//79
f 70//70 86//86 80//80
f 70//70 80//80 76//76
f 293//293 81//81 79//79
f 293//293 79//79 83//83
f 86//86 90//90 84//84
f 86//86 84//84 80//80
f 69//69 295//295 87//87
f 69//69 87//87 85//85
f 85//85 87//87 91//91
f 85//85 91//91 89//89
f 89//89 91//91 95//95
f 89//89 95//95 93//93
f 90//90 94//94 100//100
f 90//90 100//100 84//84
f 93//93 95//95 291//291
f 93//93 291//291 97//97
f 94//94 98//98 104//104
f 94//94 104//104 100//100
f 101//101 293//293 83//83
f 101//101 83//83 99//99
f 105//105 101//101 99//99
f 105//105 99//99 103//103
f 110//110 105//105 103//103
f 110//110 103//103 107//107
f 98//98 117//117 109//109
f 98//98 109//109 104//104
f 289//289 111//111 108//108
f 289//289 108//108 113//113
f 117//117 122//122 114//114
f 117//117 114//114 109//109
f 97//97 291//291 118//118
f 97//97 118//118 115//115
f 116//116 119//119 123//123
f 116//116 123//123 121//121
f 121//121 123//123 127//127
f 121//121 127//127 125//125
f 122//122 126//126 132//132
f 122//122 132//132 114//114
f 125//125 127//127 287//287
f 125//125 287//287 129//129
f 126//126 130//130 136//136
f 126//126 136//136 132//132
f 133//133 289//289 113//113
f 133//133 113//113 131//131
f 137//137 133//133 131//131
f 137//137 131//131 135//135
f 141//141 137//137 135//135
f 141//141 135//135 139//139
f 130//130 146//146 140//140
f 130//130 140//140 136//136
f 143//143 157//157 141//141
f 143//143 141//141 139//139
f 146//146 150//150 144//144
f 146//146 144//144 140//140
f 129//129 287//287 147//147
f 129//129 147//147 145//145
f 147//147 153//153 149//149
f 147//147 149//149 145//145
f 155//155 151//151 149//149
f 155//155 149//149 153//153
f 150//150 152//152 162//162
f 150//150 162//162 144//144
f 156//156 154//154 158//158
f 156//156 158//158 160//160
f 154//154 148//148 142//142
f 154//154 142//142 158//158
f 143//143 161//161 159//159
f 143//143 159//159 157//157
f 159//159 161//161 165//165
f 159//159 165//165 163//163
f 170//170 156//156 160//160
f 170//170 160//160 164//164
f 163//163 165//165 285//285
f 163//163 285//285 167//167
f 174//174 170//170 164//164
f 174//174 164//164 168//168
f 175//175 171//171 169//169
f 175//175 169//169 173//173
f 171//171 151//151 155//155
f 171//171 155//155 169//169
f 179//179 175//175 173//173
f 179//179 173//173 177//177
f 178//178 174//174 168//168
f 178//178 168//168 185//185
f 282//282 179//179 177//177
f 282//282 177//177 181//181
f 183//183 178//178 185//185
f 183//183 185//185 190//190
f 184//184 186//186 191//191
f 184//184 191//191 188//188
f 167//167 285//285 186//186
f 167//167 186//186 184//184
f 189//189 192//192 196//196
f 189//189 196//196 194//194
f 201//201 183//183 190//190
f 201//201 190//190 195//195
f 194//194 196//196 280//280
f 194//194 280//280 198//198
f 205//205 201//201 195//195
f 205//205 195//195 199//199
f 206//206 202//202 200//200
f 206//206 200//200 204//204
f 202//202 283//283 182//182
f 202//202 182//182 200//200
f 210//210 206//206 204//204
f 210//210 204//204 208//208
f 209//209 205//205 199//199
f 209//209 199//199 215//215
f 278//278 210//210 208//208
f 278//278 208//208 212//212
f 213//213 209//209 215//215
f 213//213 215//215 219//219
f 214//214 216//216 220//220
f 214//214 220//220 218//218
f 198//198 280//280 216//216
f 198//198 216//216 214//214
f 218//218 220//220 224//224
f 218//218 224//224 222//222
f 229//229 213//213 219//219
f 229//229 219//219 223//223
f 222//222 224//224 276//276
f 222//222 276//276 226//226
f 233//233 229//229 223//223
f 233//233 223//223 227//227
f 234//234 230//230 228//228
f 234//234 228//228 232//232
f 230//230 278//278 212//212
f 230//230 212//212 228//228
f 238//238 234//234 232//232
f 238//238 232//232 236//236
f 237//237 233//233 227//227
f 237//237 227//227 244//244
f 274//274 238//238 236//236
f 274//274 236//236 241//241
f 242//242 237//237 244//244
f 242//242 244//244 249//249
f 243//243 245//245 251//251
f 243//243 251//251 248//248
f 226//226 276//276 245//245
f 226//226 245//245 243//243
f 247//247 250//250 255//255
f 247//247 255//255 253//253
f 260//260 242//242 249//249
f 260//260 249//249 254//254
f 253//253 255//255 271//271
f 253//253 271//271 257//257
f 264//264 260//260 254//254
f 264//264 254//254 258//258
f 265//265 261//261 259//259
f 265//265 259//259 263//263
f 261//261 273//273 240//240
f 261//261 240//240 259//259
f 3//3 265//265 263//263
f 3//3 263//263 267//267
f 268//268 264//264 258//258
f 268//268 258//258 270//270
f 6//6 268//268 270//270
f 6//6 270//270 14//14
f 257//257 271//271 11//11
f 257//257 11//11 269//269
f 266//266 4//4 12//12
f 266//266 12//12 272//272
f 262//262 266//266 272//272
f 262//262 272//272 256//256
f 275//275 262//262 256//256
f 275//275 256//256 252//252
f 239//239 275//275 252//252
f 239//239 252//252 246//246
f 235//235 239//239 246//246
f 235//235 246//246 277//277
f 231//231 235//235 277//277
f 231//231 277//277 225//225
f 279//279 231//231 225//225
f 279//279 225//225 221//221
f 211//211 279//279 221//221
f 211//211 221//221 217//217
f 207//207 211//211 217//217
f 207//207 217//217 281//281
f 203//203 207//207 281//281
f 203//203 281//281 197//197
f 284//284 203//203 197//197
f 284//284 197//197 193//193
f 180//180 284//284 193//193
f 180//180 193//193 187//187
f 176//176 180//180 187//187
f 176//176 187//187 286//286
f 172//172 176//176 286//286
f 172//172 286//286 166//166
f 152//152 172//172 166//166
f 152//152 166//166 162//162
f 148//148 288//288 138//138
f 148//148 138//138 142//142
f 288//288 128//128 134//134
f 288//288 134//134 138//138
f 128//128 124//124 290//290
f 128//128 290//290 134//134
f 124//124 120//120 112//112
f 124//124 112//112 290//290
f 120//120 292//292 106//106
f 120//120 106//106 112//112
f 292//292 96//96 102//102
f 292//292 102//102 106//106
f 96//96 92//92 294//294
f 96//96 294//294 102//102
f 92//92 88//88 82//82
f 92//92 82//82 294//294
f 88//88 296//296 78//78
f 88//88 78//78 82//82
f 296//296 68//68 74//74
f 296//296 74//74 78//78
f 68//68 64//64 298//298
f 68//68 298//298 74//74
f 64//64 60//60 52//52
f 64//64 52//52 298//298
f 60//60 300//300 46//46
f 60//60 46//46 52//52
f 300//300 36//36 42//42
f 300//300 42//42 46//46
f 36//36 32//32 302//302
f 36//36 302//302 42//42
f 32//32 28//28 22//22
f 32//32 22//22 302//302
f 28//28 304//304 18//18
f 28//28 18//18 22//22
f 304//304 6//6 14//14
f 304//304 14//14 18//18

