# https://github.com/mikedh/trimesh
v 0.13999999 -0.20000000 0.31453311
v 0.13999999 -0.20000000 0.31453311
v 0.13999999 -0.25000000 0.36453312
v 0.13999999 -0.25000000 0.36453312
v 0.13999999 -0.21913415 0.31833913
v 0.13999999 -0.21913415 0.31833913
v 0.13999999 -0.23535532 0.32917777
v 0.13999999 -0.23535532 0.32917777
v 0.13999999 -0.23535532 0.32917777
v 0.13999999 -0.24619396 0.34539894
v 0.13999999 -0.24619396 0.34539894
v 0.13999999 -0.25000000 0.39013118
v 0.13999999 -0.25000000 0.39013118
v 0.13999999 -0.20000000 0.44013119
v 0.13999999 -0.20000000 0.44013119
v 0.13999999 -0.24619396 0.40926535
v 0.13999999 -0.24619396 0.40926535
v 0.13999999 -0.23535532 0.42548652
v 0.13999999 -0.23535532 0.42548652
v 0.13999999 -0.23535532 0.42548652
v 0.13999999 -0.21913415 0.43632516
v 0.13999999 -0.21913415 0.43632516
v 0.13999999 0.25000000 0.36453312
v 0.13999999 0.20000000 0.31453311
v 0.13999999 0.20000000 0.31453311
v 0.13999999 0.24619396 0.34539894
v 0.13999999 0.24619396 0.34539894
v 0.13999999 0.23535532 0.32917777
v 0.13999999 0.23535532 0.32917777
v 0.13999999 0.23535532 0.32917777
v 0.13999999 0.21913415 0.31833913
v 0.13999999 0.21913415 0.31833913
v 0.13999999 0.20000000 0.44013119
v 0.13999999 0.20000000 0.44013119
v 0.13999999 0.25000000 0.39013119
v 0.13999999 0.21913415 0.43632516
v 0.13999999 0.21913415 0.43632516
v 0.13999999 0.23535532 0.42548653
v 0.13999999 0.23535532 0.42548653
v 0.13999999 0.23535532 0.42548653
v 0.13999999 0.24619396 0.40926536
v 0.13999999 0.24619396 0.40926536
v 0.19499999 -0.25000000 0.36453312
v 0.19499999 -0.20000000 0.31453311
v 0.19499999 -0.24619396 0.34539894
v 0.19499999 -0.24619396 0.34539894
v 0.19499999 -0.23535532 0.32917777
v 0.19499999 -0.23535532 0.32917777
v 0.19499999 -0.21913415 0.31833913
v 0.19499999 -0.21913415 0.31833913
v 0.19499999 -0.20000000 0.44013119
v 0.19499999 -0.25000000 0.39013119
v 0.19499999 -0.21913415 0.43632516
v 0.19499999 -0.21913415 0.43632516
v 0.19499999 -0.23535532 0.42548653
v 0.19499999 -0.23535532 0.42548653
v 0.19499999 -0.24619396 0.40926536
v 0.19499999 -0.24619396 0.40926536
v 0.19499999 0.20000000 0.31453311
v 0.19499999 0.25000000 0.36453312
v 0.19499999 0.21913415 0.31833913
v 0.19499999 0.21913415 0.31833913
v 0.19499999 0.23535532 0.32917777
v 0.19499999 0.23535532 0.32917777
v 0.19499999 0.24619396 0.34539894
v 0.19499999 0.24619396 0.34539894
v 0.19499999 0.25000000 0.39013118
v 0.19499999 0.20000000 0.44013119
v 0.19499999 0.24619396 0.40926535
v 0.19499999 0.24619396 0.40926535
v 0.19499999 0.23535532 0.42548652
v 0.19499999 0.23535532 0.42548652
v 0.19499999 0.21913415 0.43632516
v 0.19499999 0.21913415 0.43632516
v -0.13999999 -0.20000000 0.31453311
v -0.13999999 -0.20000000 0.31453311
v -0.13999999 -0.25000000 0.36453312
v -0.13999999 -0.25000000 0.36453312
v -0.13999999 -0.21913415 0.31833913
v -0.13999999 -0.21913415 0.31833913
v -0.13999999 -0.23535532 0.32917777
v -0.13999999 -0.23535532 0.32917777
v -0.13999999 -0.23535532 0.32917777
v -0.13999999 -0.24619396 0.34539894
v -0.13999999 -0.24619396 0.34539894
v -0.13999999 -0.25000000 0.39013118
v -0.13999999 -0.25000000 0.39013118
v -0.13999999 -0.20000000 0.44013119
v -0.13999999 -0.20000000 0.44013119
v -0.13999999 -0.24619396 0.40926535
v -0.13999999 -0.24619396 0.40926535
v -0.13999999 -0.23535532 0.42548652
v -0.13999999 -0.23535532 0.42548652
v -0.13999999 -0.23535532 0.42548652
v -0.13999999 -0.21913415 0.43632516
v -0.13999999 -0.21913415 0.43632516
v -0.13999999 0.25000000 0.36453312
v -0.13999999 0.20000000 0.31453311
v -0.13999999 0.20000000 0.31453311
v -0.13999999 0.24619396 0.34539894
v -0.13999999 0.24619396 0.34539894
v -0.13999999 0.23535532 0.32917777
v -0.13999999 0.23535532 0.32917777
v -0.13999999 0.23535532 0.32917777
v -0.13999999 0.21913415 0.31833913
v -0.13999999 0.21913415 0.31833913
v -0.13999999 0.20000000 0.44013119
v -0.13999999 0.20000000 0.44013119
v -0.13999999 0.25000000 0.39013119
v -0.13999999 0.21913415 0.43632516
v -0.13999999 0.21913415 0.43632516
v -0.13999999 0.23535532 0.42548653
v -0.13999999 0.23535532 0.42548653
v -0.13999999 0.23535532 0.42548653
v -0.13999999 0.24619396 0.40926536
v -0.13999999 0.24619396 0.40926536
v -0.19499999 -0.25000000 0.36453312
v -0.19499999 -0.20000000 0.31453311
v -0.19499999 -0.24619396 0.34539894
v -0.19499999 -0.24619396 0.34539894
v -0.19499999 -0.23535532 0.32917777
v -0.19499999 -0.23535532 0.32917777
v -0.19499999 -0.21913415 0.31833913
v -0.19499999 -0.21913415 0.31833913
v -0.19499999 -0.20000000 0.44013119
v -0.19499999 -0.25000000 0.39013119
v -0.19499999 -0.21913415 0.43632516
v -0.19499999 -0.21913415 0.43632516
v -0.19499999 -0.23535532 0.42548653
v -0.19499999 -0.23535532 0.42548653
v -0.19499999 -0.24619396 0.40926536
v -0.19499999 -0.24619396 0.40926536
v -0.19499999 0.20000000 0.31453311
v -0.19499999 0.25000000 0.36453312
v -0.19499999 0.21913415 0.31833913
v -0.19499999 0.21913415 0.31833913
v -0.19499999 0.23535532 0.32917777
v -0.19499999 0.23535532 0.32917777
v -0.19499999 0.24619396 0.34539894
v -0.19499999 0.24619396 0.34539894
v -0.19499999 0.25000000 0.39013118
v -0.19499999 0.20000000 0.44013119
v -0.19499999 0.24619396 0.40926535
v -0.19499999 0.24619396 0.40926535
v -0.19499999 0.23535532 0.42548652
v -0.19499999 0.23535532 0.42548652
v -0.19499999 0.21913415 0.43632516
v -0.19499999 0.21913415 0.43632516
vn 0.00000000 -0.09801729 -0.99518471
vn -1.00000000 0.00000000 0.00000000
vn 0.00000000 -0.99518469 -0.09801751
vn -1.00000000 0.00000000 0.00000000
vn 0.00000000 -0.38268369 -0.92387942
vn -1.00000000 0.00000000 0.00000000
vn 0.00000000 -0.55557046 -0.83146946
vn 0.00000000 -0.83146946 -0.55557046
vn -1.00000000 0.00000000 0.00000000
vn 0.00000000 -0.92387934 -0.38268390
vn -1.00000000 0.00000000 0.00000000
vn -0.00000002 -0.99518468 0.09801757
vn -1.00000000 0.00000000 0.00000000
vn 0.00000000 -0.09801747 0.99518469
vn -1.00000000 0.00000000 0.00000000
vn -0.00000010 -0.92387936 0.38268385
vn -1.00000000 0.00000000 0.00000000
vn -0.00000015 -0.83146958 0.55557028
vn -0.00000014 -0.55557014 0.83146968
vn -1.00000000 0.00000000 0.00000000
vn -0.00000007 -0.38268369 0.92387943
vn -1.00000000 0.00000000 0.00000000
vn -0.68569637 0.72438268 -0.07134574
vn 0.00000000 0.09801729 -0.99518471
vn -1.00000000 0.00000000 0.00000000
vn 0.00000000 0.92387934 -0.38268390
vn -1.00000000 0.00000000 0.00000000
vn 0.00000000 0.55557046 -0.83146946
vn 0.00000000 0.83146946 -0.55557046
vn -1.00000000 0.00000000 0.00000000
vn 0.00000000 0.38268369 -0.92387942
vn -1.00000000 0.00000000 0.00000000
vn 0.00000005 0.09801733 0.99518471
vn -1.00000000 0.00000000 0.00000000
vn -0.68569637 0.72438269 0.07134576
vn 0.00000017 0.38268343 0.92387953
vn -1.00000000 0.00000000 0.00000000
vn 0.00000015 0.83146958 0.55557028
vn 0.00000023 0.55556993 0.83146981
vn -1.00000000 0.00000000 0.00000000
vn 0.00000009 0.92387935 0.38268386
vn -1.00000000 0.00000000 0.00000000
vn 0.68569637 -0.72438268 -0.07134574
vn 0.68569642 -0.07134557 -0.72438265
vn 0.00000000 -0.92387934 -0.38268390
vn 1.00000000 0.00000000 0.00000000
vn 0.00000000 -0.70710678 -0.70710678
vn 1.00000000 0.00000000 0.00000000
vn 0.00000000 -0.38268369 -0.92387942
vn 1.00000000 0.00000000 0.00000000
vn 0.68569640 -0.07134560 0.72438267
vn 0.68569637 -0.72438269 0.07134576
vn -0.00000017 -0.38268343 0.92387953
vn 1.00000000 0.00000000 0.00000000
vn -0.00000019 -0.70710661 0.70710695
vn 1.00000000 0.00000000 0.00000000
vn -0.00000009 -0.92387935 0.38268386
vn 1.00000000 0.00000000 0.00000000
vn 0.68569642 0.07134557 -0.72438265
vn 0.68569637 0.72438268 -0.07134574
vn 0.00000000 0.38268369 -0.92387942
vn 1.00000000 0.00000000 0.00000000
vn 0.00000000 0.70710678 -0.70710678
vn 1.00000000 0.00000000 0.00000000
vn 0.00000000 0.92387934 -0.38268390
vn 1.00000000 0.00000000 0.00000000
vn 0.68569637 0.72438268 0.07134578
vn 0.68569638 0.07134571 0.72438268
vn 0.00000010 0.92387936 0.38268385
vn 1.00000000 0.00000000 0.00000000
vn 0.00000015 0.70710674 0.70710683
vn 1.00000000 0.00000000 0.00000000
vn 0.00000007 0.38268369 0.92387943
vn 1.00000000 0.00000000 0.00000000
vn 0.00000000 -0.09801729 -0.99518471
vn 1.00000000 0.00000000 0.00000000
vn 0.00000000 -0.99518469 -0.09801751
vn 1.00000000 0.00000000 0.00000000
vn 0.00000000 -0.38268369 -0.92387942
vn 1.00000000 0.00000000 0.00000000
vn 0.00000000 -0.55557046 -0.83146946
vn 0.00000000 -0.83146946 -0.55557046
vn 1.00000000 0.00000000 0.00000000
vn 0.00000000 -0.92387934 -0.38268390
vn 1.00000000 0.00000000 0.00000000
vn 0.00000002 -0.99518468 0.09801757
vn 1.00000000 0.00000000 0.00000000
vn 0.00000000 -0.09801747 0.99518469
vn 1.00000000 0.00000000 0.00000000
vn 0.00000010 -0.92387936 0.38268385
vn 1.00000000 0.00000000 0.00000000
vn 0.00000015 -0.83146958 0.55557028
vn 0.00000014 -0.55557014 0.83146968
vn 1.00000000 0.00000000 0.00000000
vn 0.00000007 -0.38268369 0.92387943
vn 1.00000000 0.00000000 0.00000000
vn 0.68569637 0.72438268 -0.07134574
vn 0.00000000 0.09801729 -0.99518471
vn 1.00000000 0.00000000 0.00000000
vn 0.00000000 0.92387934 -0.38268390
vn 1.00000000 0.00000000 0.00000000
vn 0.00000000 0.55557046 -0.83146946
vn 0.00000000 0.83146946 -0.55557046
vn 1.00000000 0.00000000 0.00000000
vn 0.00000000 0.38268369 -0.92387942
vn 1.00000000 0.00000000 0.00000000
vn -0.00000005 0.09801733 0.99518471
vn 1.00000000 0.00000000 0.00000000
vn 0.68569637 0.72438269 0.07134576
vn -0.00000017 0.38268343 0.92387953
vn 1.00000000 0.00000000 0.00000000
vn -0.00000015 0.83146958 0.55557028
vn -0.00000023 0.55556993 0.83146981
vn 1.00000000 0.00000000 0.00000000
vn -0.00000009 0.92387935 0.38268386
vn 1.00000000 0.00000000 0.00000000
vn -0.68569637 -0.72438268 -0.07134574
vn -0.68569642 -0.07134557 -0.72438265
vn 0.00000000 -0.92387934 -0.38268390
vn -1.00000000 0.00000000 0.00000000
vn 0.00000000 -0.70710678 -0.70710678
vn -1.00000000 0.00000000 0.00000000
vn 0.00000000 -0.38268369 -0.92387942
vn -1.00000000 0.00000000 0.00000000
vn -0.68569640 -0.07134560 0.72438267
vn -0.68569637 -0.72438269 0.07134576
vn 0.00000017 -0.38268343 0.92387953
vn -1.00000000 0.00000000 0.00000000
vn 0.00000019 -0.70710661 0.70710695
vn -1.00000000 0.00000000 0.00000000
vn 0.00000009 -0.92387935 0.38268386
vn -1.00000000 0.00000000 0.00000000
vn -0.68569642 0.07134557 -0.72438265
vn -0.68569637 0.72438268 -0.07134574
vn 0.00000000 0.38268369 -0.92387942
vn -1.00000000 0.00000000 0.00000000
vn 0.00000000 0.70710678 -0.70710678
vn -1.00000000 0.00000000 0.00000000
vn 0.00000000 0.92387934 -0.38268390
vn -1.00000000 0.00000000 0.00000000
vn -0.68569637 0.72438268 0.07134578
vn -0.68569638 0.07134571 0.72438268
vn -0.00000010 0.92387936 0.38268385
vn -1.00000000 0.00000000 0.00000000
vn -0.00000015 0.70710674 0.70710683
vn -1.00000000 0.00000000 0.00000000
vn -0.00000007 0.38268369 0.92387943
vn -1.00000000 0.00000000 0.00000000
f 43//43 52//52 12//12
f 43//43 12//12 3//3
f 44//44 59//59 62//62
f 62//62 64//64 66//66
f 66//66 60//60 67//67
f 67//67 70//70 72//72
f 72//72 74//74 68//68
f 68//68 51//51 54//54
f 54//54 56//56 58//58
f 58//58 52//52 43//43
f 43//43 46//46 48//48
f 48//48 50//50 44//44
f 44//44 62//62 66//66
f 66//66 67//67 72//72
f 72//72 68//68 54//54
f 54//54 58//58 43//43
f 43//43 48//48 44//44
f 44//44 66//66 72//72
f 72//72 54//54 43//43
f 72//72 43//43 44//44
f 68//68 33//33 14//14
f 68//68 14//14 51//51
f 25//25 2//2 6//6
f 6//6 9//9 11//11
f 11//11 4//4 13//13
f 13//13 17//17 20//20
f 20//20 22//22 15//15
f 15//15 34//34 37//37
f 37//37 40//40 42//42
f 42//42 35//35 23//23
f 23//23 27//27 30//30
f 30//30 32//32 25//25
f 25//25 6//6 11//11
f 11//11 13//13 20//20
f 20//20 15//15 37//37
f 37//37 42//42 23//23
f 23//23 30//30 25//25
f 25//25 11//11 20//20
f 20//20 37//37 23//23
f 20//20 23//23 25//25
f 23//23 35//35 67//67
f 23//23 67//67 60//60
f 59//59 24//24 31//31
f 59//59 31//31 61//61
f 61//61 31//31 28//28
f 61//61 28//28 63//63
f 63//63 29//29 26//26
f 63//63 26//26 65//65
f 65//65 26//26 23//23
f 65//65 23//23 60//60
f 33//33 68//68 73//73
f 33//33 73//73 36//36
f 36//36 73//73 71//71
f 36//36 71//71 39//39
f 38//38 71//71 69//69
f 38//38 69//69 41//41
f 41//41 69//69 67//67
f 41//41 67//67 35//35
f 1//1 44//44 49//49
f 1//1 49//49 5//5
f 5//5 49//49 47//47
f 5//5 47//47 7//7
f 8//8 47//47 45//45
f 8//8 45//45 10//10
f 10//10 45//45 43//43
f 10//10 43//43 3//3
f 51//51 14//14 21//21
f 51//51 21//21 53//53
f 53//53 21//21 19//19
f 53//53 19//19 55//55
f 55//55 18//18 16//16
f 55//55 16//16 57//57
f 57//57 16//16 12//12
f 57//57 12//12 52//52
f 24//24 59//59 44//44
f 24//24 44//44 1//1
f 117//117 77//77 86//86
f 117//117 86//86 126//126
f 136//136 133//133 118//118
f 118//118 124//124 122//122
f 122//122 120//120 117//117
f 117//117 126//126 132//132
f 132//132 130//130 128//128
f 128//128 125//125 142//142
f 142//142 148//148 146//146
f 146//146 144//144 141//141
f 141//141 134//134 140//140
f 140//140 138//138 136//136
f 136//136 118//118 122//122
f 122//122 117//117 132//132
f 132//132 128//128 142//142
f 142//142 146//146 141//141
f 141//141 140//140 136//136
f 136//136 122//122 132//132
f 132//132 142//142 141//141
f 132//132 141//141 136//136
f 142//142 125//125 88//88
f 142//142 88//88 107//107
f 80//80 76//76 99//99
f 99//99 106//106 104//104
f 104//104 101//101 97//97
f 97//97 109//109 116//116
f 116//116 114//114 111//111
f 111//111 108//108 89//89
f 89//89 96//96 94//94
f 94//94 91//91 87//87
f 87//87 78//78 85//85
f 85//85 83//83 80//80
f 80//80 99//99 104//104
f 104//104 97//97 116//116
f 116//116 111//111 89//89
f 89//89 94//94 87//87
f 87//87 85//85 80//80
f 80//80 104//104 116//116
f 116//116 89//89 87//87
f 116//116 87//87 80//80
f 97//97 134//134 141//141
f 97//97 141//141 109//109
f 133//133 135//135 105//105
f 133//133 105//105 98//98
f 135//135 137//137 102//102
f 135//135 102//102 105//105
f 137//137 139//139 100//100
f 137//137 100//100 103//103
f 139//139 134//134 97//97
f 139//139 97//97 100//100
f 107//107 110//110 147//147
f 107//107 147//147 142//142
f 110//110 113//113 145//145
f 110//110 145//145 147//147
f 112//112 115//115 143//143
f 112//112 143//143 145//145
f 115//115 109//109 141//141
f 115//115 141//141 143//143
f 75//75 79//79 123//123
f 75//75 123//123 118//118
f 79//79 81//81 121//121
f 79//79 121//121 123//123
f 82//82 84//84 119//119
f 82//82 119//119 121//121
f 84//84 77//77 117//117
f 84//84 117//117 119//119
f 125//125 127//127 95//95
f 125//125 95//95 88//88
f 127//127 129//129 93//93
f 127//127 93//93 95//95
f 129//129 131//131 90//90
f 129//129 90//90 92//92
f 131//131 126//126 86//86
f 131//131 86//86 90//90
f 98//98 75//75 118//118
f 98//98 118//118 133//133

