# https://github.com/mikedh/trimesh
v -0.19997084 -0.23267552 0.05565704
v -0.23267552 -0.19997084 0.05565704
v -0.20843543 -0.23156114 0.05565704
v -0.20843543 -0.23156114 0.05565704
v -0.21632318 -0.22829391 0.05565704
v -0.21632318 -0.22829391 0.05565704
v -0.22309654 -0.22309654 0.05565704
v -0.22309654 -0.22309654 0.05565704
v -0.22829391 -0.21632318 0.05565704
v -0.22829391 -0.21632318 0.05565704
v -0.23156114 -0.20843543 0.05565704
v -0.23156114 -0.20843543 0.05565704
v -0.23267552 0.19997091 0.05565725
v -0.19997091 0.23267552 0.05565727
v -0.23156114 0.20843547 0.05565725
v -0.22829394 0.21632321 0.05565727
v -0.22309656 0.22309656 0.05565727
v -0.21632321 0.22829392 0.05565727
v -0.20843547 0.23156114 0.05565727
v 0.23267552 -0.19997091 0.05565727
v 0.19997091 -0.23267552 0.05565725
v 0.23156114 -0.20843547 0.05565727
v 0.22829392 -0.21632321 0.05565727
v 0.22309656 -0.22309656 0.05565727
v 0.21632321 -0.22829394 0.05565727
v 0.20843547 -0.23156114 0.05565725
v 0.19997091 0.23267552 0.05565727
v 0.23267552 0.19997091 0.05565727
v 0.20843547 0.23156114 0.05565727
v 0.21632321 0.22829392 0.05565727
v 0.22309654 0.22309654 0.05565727
v 0.22829392 0.21632321 0.05565727
v 0.23156114 0.20843547 0.05565727
v -0.16195284 -0.19461213 0.00000000
v -0.19461213 -0.16195284 0.00000000
v -0.17040570 -0.19349929 0.00000000
v -0.17828249 -0.19023662 0.00000000
v -0.18504646 -0.18504646 0.00000000
v -0.19023662 -0.17828249 0.00000000
v -0.19349929 -0.17040570 0.00000000
v -0.19730475 -0.23000000 0.04816170
v -0.23000000 -0.19730475 0.04816170
v -0.20576687 -0.22888591 0.04816170
v -0.21365235 -0.22561964 0.04816170
v -0.22042379 -0.22042379 0.04816170
v -0.22561964 -0.21365235 0.04816170
v -0.22888591 -0.20576687 0.04816170
v -0.19461213 0.16195286 0.00000000
v -0.16195286 0.19461213 0.00000000
v -0.19349928 0.17040570 0.00000000
v -0.19023659 0.17828247 0.00000000
v -0.18504643 0.18504643 0.00000000
v -0.17828247 0.19023659 0.00000000
v -0.17040570 0.19349928 0.00000000
v -0.23000000 0.19730478 0.04816170
v -0.19730478 0.23000000 0.04816170
v -0.22888591 0.20576689 0.04816170
v -0.22561964 0.21365236 0.04816170
v -0.22042381 0.22042381 0.04816170
v -0.21365236 0.22561964 0.04816170
v -0.20576689 0.22888591 0.04816170
v 0.19461213 -0.16195286 0.00000000
v 0.16195286 -0.19461213 0.00000000
v 0.19349928 -0.17040570 0.00000000
v 0.19349928 -0.17040570 0.00000000
v 0.19023659 -0.17828247 0.00000000
v 0.19023659 -0.17828247 0.00000000
v 0.18504643 -0.18504643 0.00000000
v 0.18504643 -0.18504643 0.00000000
v 0.17828247 -0.19023659 0.00000000
v 0.17828247 -0.19023659 0.00000000
v 0.17040570 -0.19349928 0.00000000
v 0.17040570 -0.19349928 0.00000000
v 0.23000000 -0.19730478 0.04816170
v 0.19730478 -0.23000000 0.04816170
v 0.22888591 -0.20576689 0.04816170
v 0.22888591 -0.20576689 0.04816170
v 0.22561964 -0.21365236 0.04816170
v 0.22561964 -0.21365236 0.04816170
v 0.22042381 -0.22042381 0.04816170
v 0.22042381 -0.22042381 0.04816170
v 0.22042381 -0.22042381 0.04816170
v 0.22042381 -0.22042381 0.04816170
v 0.21365236 -0.22561964 0.04816170
v 0.21365236 -0.22561964 0.04816170
v 0.20576689 -0.22888591 0.04816170
v 0.20576689 -0.22888591 0.04816170
v 0.16195286 0.19461213 0.00000000
v 0.19461213 0.16195286 0.00000000
v 0.17040570 0.19349928 0.00000000
v 0.17040570 0.19349928 0.00000000
v 0.17828247 0.19023659 0.00000000
v 0.17828247 0.19023659 0.00000000
v 0.18504643 0.18504643 0.00000000
v 0.18504643 0.18504643 0.00000000
v 0.19023659 0.17828247 0.00000000
v 0.19023659 0.17828247 0.00000000
v 0.19349928 0.17040570 0.00000000
v 0.19349928 0.17040570 0.00000000
v 0.19730478 0.23000000 0.04816170
v 0.23000000 0.19730478 0.04816170
v 0.20576689 0.22888591 0.04816170
v 0.20576689 0.22888591 0.04816170
v 0.21365236 0.22561964 0.04816170
v 0.21365236 0.22561964 0.04816170
v 0.22042381 0.22042381 0.04816170
v 0.22042381 0.22042381 0.04816170
v 0.22042381 0.22042381 0.04816170
v 0.22042381 0.22042381 0.04816170
v 0.22561964 0.21365236 0.04816170
v 0.22561964 0.21365236 0.04816170
v 0.22888591 0.20576689 0.04816170
v 0.22888591 0.20576689 0.04816170
v -0.23450395 -0.20215414 0.05321169
v -0.20215416 -0.23450395 0.05321169
v -0.23340166 -0.21052689 0.05321169
v -0.23340166 -0.21052689 0.05321169
v -0.23016991 -0.21832905 0.05321169
v -0.23016991 -0.21832905 0.05321169
v -0.22502893 -0.22502892 0.05321169
v -0.22502893 -0.22502892 0.05321169
v -0.21832906 -0.23016989 0.05321169
v -0.21832906 -0.23016989 0.05321169
v -0.21052690 -0.23340166 0.05321169
v -0.21052690 -0.23340166 0.05321169
v -0.20215420 0.23450395 0.05321181
v -0.23450395 0.20215420 0.05321179
v -0.21052693 0.23340166 0.05321181
v -0.21832909 0.23016991 0.05321181
v -0.22502893 0.22502893 0.05321181
v -0.23016991 0.21832908 0.05321181
v -0.23340166 0.21052694 0.05321179
v 0.23450395 0.20215420 0.05321181
v 0.20215420 0.23450395 0.05321181
v 0.23340166 0.21052693 0.05321181
v 0.23016991 0.21832908 0.05321181
v 0.22502893 0.22502893 0.05321181
v 0.21832908 0.23016991 0.05321181
v 0.21052693 0.23340166 0.05321181
v 0.20215420 -0.23450395 0.05321179
v 0.23450395 -0.20215420 0.05321181
v 0.21052694 -0.23340166 0.05321179
v 0.21832908 -0.23016991 0.05321181
v 0.22502893 -0.22502893 0.05321181
v 0.23016991 -0.21832909 0.05321181
v 0.23340166 -0.21052693 0.05321181
v -0.22577283 -0.19272779 0.05565701
v -0.19272779 -0.22577283 0.05565701
v -0.22464686 -0.20128049 0.05565701
v -0.22464686 -0.20128049 0.05565701
v -0.22134563 -0.20925031 0.05565701
v -0.22134563 -0.20925031 0.05565701
v -0.21609417 -0.21609417 0.05565701
v -0.21609417 -0.21609417 0.05565701
v -0.20925031 -0.22134563 0.05565701
v -0.20925031 -0.22134563 0.05565701
v -0.20128049 -0.22464686 0.05565701
v -0.20128049 -0.22464686 0.05565701
v -0.18935233 -0.22239357 0.05388667
v -0.22239357 -0.18935233 0.05388667
v -0.19790403 -0.22126771 0.05388667
v -0.19790403 -0.22126771 0.05388667
v -0.20587295 -0.21796688 0.05388667
v -0.20587295 -0.21796688 0.05388667
v -0.21271601 -0.21271601 0.05388667
v -0.21271601 -0.21271601 0.05388667
v -0.21796688 -0.20587295 0.05388667
v -0.21796688 -0.20587295 0.05388667
v -0.22126771 -0.19790403 0.05388667
v -0.22126771 -0.19790403 0.05388667
v -0.22239357 0.18935238 0.05388667
v -0.18935238 0.22239357 0.05388667
v -0.22126771 0.19790406 0.05388667
v -0.21796690 0.20587298 0.05388667
v -0.21271602 0.21271602 0.05388667
v -0.20587298 0.21796690 0.05388667
v -0.19790406 0.22126771 0.05388667
v -0.19272784 0.22577283 0.05565710
v -0.22577283 0.19272784 0.05565710
v -0.20128055 0.22464686 0.05565710
v -0.20925036 0.22134566 0.05565710
v -0.21609420 0.21609420 0.05565710
v -0.22134566 0.20925036 0.05565710
v -0.22464686 0.20128055 0.05565710
v 0.18935238 0.22239357 0.05388667
v 0.22239357 0.18935238 0.05388667
v 0.19790406 0.22126771 0.05388667
v 0.20587298 0.21796690 0.05388667
v 0.21271602 0.21271602 0.05388667
v 0.21796690 0.20587298 0.05388667
v 0.22126771 0.19790406 0.05388667
v 0.22577283 0.19272784 0.05565710
v 0.19272784 0.22577283 0.05565710
v 0.22464686 0.20128055 0.05565710
v 0.22134566 0.20925036 0.05565710
v 0.21609420 0.21609420 0.05565710
v 0.20925036 0.22134566 0.05565710
v 0.20128055 0.22464686 0.05565710
v 0.22239357 -0.18935238 0.05388667
v 0.18935238 -0.22239357 0.05388667
v 0.22126771 -0.19790406 0.05388667
v 0.21796690 -0.20587298 0.05388667
v 0.21271602 -0.21271602 0.05388667
v 0.20587298 -0.21796690 0.05388667
v 0.19790406 -0.22126771 0.05388667
v 0.19272784 -0.22577283 0.05565710
v 0.22577283 -0.19272784 0.05565710
v 0.20128055 -0.22464686 0.05565710
v 0.20925036 -0.22134566 0.05565710
v 0.21609420 -0.21609420 0.05565710
v 0.22134566 -0.20925036 0.05565710
v 0.22464686 -0.20128055 0.05565710
v -0.23244063 -0.19985335 0.04840858
v -0.19985335 -0.23244063 0.04840858
v -0.23133022 -0.20828753 0.04840858
v -0.22807477 -0.21614700 0.04840858
v -0.22289605 -0.22289605 0.04840858
v -0.21614700 -0.22807477 0.04840858
v -0.20828753 -0.23133022 0.04840858
v -0.20217766 -0.23450395 0.05065575
v -0.20217766 -0.23450395 0.05065575
v -0.23450395 -0.20217766 0.05065575
v -0.23450395 -0.20217766 0.05065575
v -0.21054430 -0.23340243 0.05065575
v -0.21054430 -0.23340243 0.05065575
v -0.21834080 -0.23017301 0.05065575
v -0.21834080 -0.23017301 0.05065575
v -0.22503579 -0.22503579 0.05065575
v -0.22503579 -0.22503579 0.05065575
v -0.22503579 -0.22503579 0.05065575
v -0.23017301 -0.21834080 0.05065575
v -0.23017301 -0.21834080 0.05065575
v -0.23340243 -0.21054430 0.05065575
v -0.23340243 -0.21054430 0.05065575
v -0.23450395 0.20217770 0.05065575
v -0.23450395 0.20217770 0.05065575
v -0.20217770 0.23450395 0.05065575
v -0.20217770 0.23450395 0.05065575
v -0.23340246 0.21054434 0.05065575
v -0.23340246 0.21054434 0.05065575
v -0.23017307 0.21834083 0.05065575
v -0.23017307 0.21834083 0.05065575
v -0.22503581 0.22503581 0.05065575
v -0.22503581 0.22503581 0.05065575
v -0.21834083 0.23017307 0.05065575
v -0.21834083 0.23017307 0.05065575
v -0.21054434 0.23340246 0.05065575
v -0.21054434 0.23340246 0.05065575
v -0.19985338 0.23244063 0.04840858
v -0.23244063 0.19985338 0.04840858
v -0.20828755 0.23133022 0.04840858
v -0.21614702 0.22807478 0.04840858
v -0.22289605 0.22289605 0.04840858
v -0.22807478 0.21614702 0.04840858
v -0.23133022 0.20828755 0.04840858
v 0.20217770 0.23450395 0.05065575
v 0.20217770 0.23450395 0.05065575
v 0.23450395 0.20217770 0.05065575
v 0.21054434 0.23340246 0.05065575
v 0.21054434 0.23340246 0.05065575
v 0.21834083 0.23017307 0.05065575
v 0.21834083 0.23017307 0.05065575
v 0.22503581 0.22503581 0.05065575
v 0.22503581 0.22503581 0.05065575
v 0.22503581 0.22503581 0.05065575
v 0.23017307 0.21834083 0.05065575
v 0.23017307 0.21834083 0.05065575
v 0.23340246 0.21054434 0.05065575
v 0.23340246 0.21054434 0.05065575
v 0.23244063 0.19985338 0.04840858
v 0.19985338 0.23244063 0.04840858
v 0.23133022 0.20828755 0.04840858
v 0.23133022 0.20828755 0.04840858
v 0.22807478 0.21614702 0.04840858
v 0.22807478 0.21614702 0.04840858
v 0.22289605 0.22289605 0.04840858
v 0.22289605 0.22289605 0.04840858
v 0.21614702 0.22807478 0.04840858
v 0.21614702 0.22807478 0.04840858
v 0.20828755 0.23133022 0.04840858
v 0.20828755 0.23133022 0.04840858
v 0.23450395 -0.20217770 0.05065575
v 0.20217770 -0.23450395 0.05065575
v 0.20217770 -0.23450395 0.05065575
v 0.23340246 -0.21054434 0.05065575
v 0.23340246 -0.21054434 0.05065575
v 0.23017307 -0.21834083 0.05065575
v 0.23017307 -0.21834083 0.05065575
v 0.22503581 -0.22503581 0.05065575
v 0.22503581 -0.22503581 0.05065575
v 0.22503581 -0.22503581 0.05065575
v 0.21834083 -0.23017307 0.05065575
v 0.21834083 -0.23017307 0.05065575
v 0.21054434 -0.23340246 0.05065575
v 0.21054434 -0.23340246 0.05065575
v 0.19985338 -0.23244063 0.04840858
v 0.23244063 -0.19985338 0.04840858
v 0.20828755 -0.23133022 0.04840858
v 0.20828755 -0.23133022 0.04840858
v 0.21614702 -0.22807478 0.04840858
v 0.21614702 -0.22807478 0.04840858
v 0.22289605 -0.22289605 0.04840858
v 0.22289605 -0.22289605 0.04840858
v 0.22807478 -0.21614702 0.04840858
v 0.22807478 -0.21614702 0.04840858
v 0.23133022 -0.20828755 0.04840858
v 0.23133022 -0.20828755 0.04840858
v -0.18154658 -0.15387091 0.00590172
v -0.19046867 -0.15747270 0.01031491
v -0.18651610 -0.15508029 0.00719431
v -0.18651610 -0.15508029 0.00719431
v -0.18651610 -0.15508029 0.00719431
v -0.18651610 -0.15508029 0.00719431
v -0.15387091 -0.18154658 0.00590172
v -0.15747270 -0.19046867 0.01031491
v -0.15508027 -0.18651610 0.00719431
v -0.15508027 -0.18651610 0.00719431
v -0.15508027 -0.18651610 0.00719431
v -0.15508027 -0.18651610 0.00719431
v -0.18056886 -0.16129754 0.00590172
v -0.18932730 -0.16599564 0.01029161
v -0.18542978 -0.16328870 0.00718749
v -0.18542978 -0.16328870 0.00718749
v -0.18542978 -0.16328870 0.00718749
v -0.18542978 -0.16328870 0.00718749
v -0.17784621 -0.16787060 0.00590172
v -0.18601370 -0.17393636 0.01026802
v -0.18229660 -0.17083553 0.00718057
v -0.18229660 -0.17083553 0.00718057
v -0.18229660 -0.17083553 0.00718057
v -0.18229660 -0.17083553 0.00718057
v -0.17351505 -0.17351505 0.00590172
v -0.18076325 -0.18076325 0.01025878
v -0.18076325 -0.18076325 0.01025878
v -0.17731852 -0.17731852 0.00717786
v -0.17731852 -0.17731852 0.00717786
v -0.17731852 -0.17731852 0.00717786
v -0.17731852 -0.17731852 0.00717786
v -0.16787060 -0.17784621 0.00590172
v -0.17393636 -0.18601370 0.01026802
v -0.17083553 -0.18229660 0.00718057
v -0.17083553 -0.18229660 0.00718057
v -0.17083553 -0.18229660 0.00718057
v -0.17083553 -0.18229660 0.00718057
v -0.16129754 -0.18056886 0.00590172
v -0.16599564 -0.18932730 0.01029161
v -0.16328870 -0.18542978 0.00718749
v -0.16328870 -0.18542978 0.00718749
v -0.16328870 -0.18542978 0.00718749
v -0.16328870 -0.18542978 0.00718749
v -0.15387098 0.18154658 0.00590172
v -0.15747275 0.19046867 0.01031491
v -0.15508034 0.18651610 0.00719431
v -0.15508034 0.18651610 0.00719431
v -0.15508034 0.18651610 0.00719431
v -0.15508034 0.18651610 0.00719431
v -0.18154658 0.15387098 0.00590172
v -0.19046867 0.15747277 0.01031491
v -0.18651610 0.15508036 0.00719431
v -0.18651610 0.15508036 0.00719431
v -0.18651610 0.15508036 0.00719431
v -0.18651610 0.15508036 0.00719431
v -0.16129756 0.18056887 0.00590172
v -0.16599568 0.18932731 0.01029161
v -0.16328873 0.18542977 0.00718749
v -0.16328873 0.18542977 0.00718749
v -0.16328873 0.18542977 0.00718749
v -0.16328873 0.18542977 0.00718749
v -0.16787062 0.17784620 0.00590172
v -0.17393636 0.18601370 0.01026802
v -0.17083554 0.18229661 0.00718057
v -0.17083554 0.18229661 0.00718057
v -0.17083554 0.18229661 0.00718057
v -0.17083554 0.18229661 0.00718057
v -0.17351506 0.17351508 0.00590172
v -0.18076327 0.18076328 0.01025878
v -0.17731854 0.17731855 0.00717786
v -0.17731854 0.17731855 0.00717786
v -0.17731854 0.17731855 0.00717786
v -0.17731854 0.17731855 0.00717786
v -0.17784617 0.16787067 0.00590172
v -0.18601369 0.17393638 0.01026802
v -0.18229659 0.17083557 0.00718057
v -0.18229659 0.17083557 0.00718057
v -0.18229659 0.17083557 0.00718057
v -0.18229659 0.17083557 0.00718057
v -0.18056886 0.16129758 0.00590172
v -0.18932730 0.16599569 0.01029161
v -0.18542978 0.16328876 0.00718749
v -0.18542978 0.16328876 0.00718749
v -0.18542978 0.16328876 0.00718749
v -0.18542978 0.16328876 0.00718749
v 0.18154658 0.15387098 0.00590172
v 0.19046867 0.15747275 0.01031491
v 0.18651610 0.15508034 0.00719431
v 0.15387098 0.18154658 0.00590172
v 0.15747277 0.19046867 0.01031491
v 0.15508036 0.18651610 0.00719431
v 0.15508036 0.18651610 0.00719431
v 0.15508036 0.18651610 0.00719431
v 0.15508036 0.18651610 0.00719431
v 0.18056887 0.16129756 0.00590172
v 0.18932731 0.16599568 0.01029161
v 0.18542977 0.16328873 0.00718749
v 0.17784620 0.16787062 0.00590172
v 0.18601370 0.17393636 0.01026802
v 0.18229661 0.17083554 0.00718057
v 0.18229661 0.17083554 0.00718057
v 0.18229661 0.17083554 0.00718057
v 0.17351508 0.17351506 0.00590172
v 0.18076328 0.18076327 0.01025878
v 0.17731855 0.17731854 0.00717786
v 0.17731855 0.17731854 0.00717786
v 0.17731855 0.17731854 0.00717786
v 0.17731855 0.17731854 0.00717786
v 0.16787067 0.17784617 0.00590172
v 0.17393638 0.18601369 0.01026802
v 0.17083557 0.18229659 0.00718057
v 0.17083557 0.18229659 0.00718057
v 0.17083557 0.18229659 0.00718057
v 0.17083557 0.18229659 0.00718057
v 0.16129758 0.18056886 0.00590172
v 0.16599571 0.18932730 0.01029161
v 0.16328876 0.18542978 0.00718749
v 0.16328876 0.18542978 0.00718749
v 0.16328876 0.18542978 0.00718749
v 0.16328876 0.18542978 0.00718749
v 0.15387098 -0.18154658 0.00590172
v 0.15747275 -0.19046867 0.01031491
v 0.15508034 -0.18651610 0.00719431
v 0.15508034 -0.18651610 0.00719431
v 0.15508034 -0.18651610 0.00719431
v 0.15508034 -0.18651610 0.00719431
v 0.18154658 -0.15387098 0.00590172
v 0.19046867 -0.15747277 0.01031491
v 0.18651610 -0.15508036 0.00719431
v 0.16129756 -0.18056887 0.00590172
v 0.16599568 -0.18932731 0.01029161
v 0.16328873 -0.18542977 0.00718749
v 0.16328873 -0.18542977 0.00718749
v 0.16328873 -0.18542977 0.00718749
v 0.16328873 -0.18542977 0.00718749
v 0.16787062 -0.17784620 0.00590172
v 0.17393636 -0.18601370 0.01026802
v 0.17083554 -0.18229661 0.00718057
v 0.17083554 -0.18229661 0.00718057
v 0.17083554 -0.18229661 0.00718057
v 0.17083554 -0.18229661 0.00718057
v 0.17351506 -0.17351508 0.00590172
v 0.18076327 -0.18076328 0.01025878
v 0.17731854 -0.17731855 0.00717786
v 0.17731854 -0.17731855 0.00717786
v 0.17731854 -0.17731855 0.00717786
v 0.17731854 -0.17731855 0.00717786
v 0.17784617 -0.16787067 0.00590172
v 0.18601369 -0.17393638 0.01026802
v 0.18229659 -0.17083557 0.00718057
v 0.18229659 -0.17083557 0.00718057
v 0.18229659 -0.17083557 0.00718057
v 0.18056886 -0.16129758 0.00590172
v 0.18932730 -0.16599571 0.01029161
v 0.18542978 -0.16328876 0.00718749
vn -0.01825384 -0.45202175 0.89182012
vn -0.45202185 -0.01825389 0.89182007
vn 0.00000102 0.00000326 1.00000000
vn -0.16245651 -0.71659865 0.67830248
vn 0.00000161 0.00000266 1.00000000
vn -0.32988657 -0.59869194 0.72989233
vn -0.23445140 -0.30554416 0.92286256
vn -0.30554337 -0.23445096 0.92286294
vn 0.00000266 0.00000161 1.00000000
vn -0.59868948 -0.32988598 0.72989462
vn 0.00000326 0.00000102 1.00000000
vn -0.71659898 -0.16245611 0.67830222
vn -0.45202465 0.01825360 0.89181866
vn -0.01825365 0.45202370 0.89181914
vn -0.41779657 0.09471528 0.90359009
vn -0.34455235 0.18985152 0.91936939
vn -0.27034280 0.27034307 0.92402889
vn -0.18985148 0.34455016 0.91937022
vn -0.09471582 0.41779581 0.90359038
vn 0.45202370 -0.01825366 0.89181914
vn 0.01825359 -0.45202457 0.89181870
vn 0.41779586 -0.09471607 0.90359033
vn 0.34455065 -0.18985101 0.91937013
vn 0.27034277 -0.27034280 0.92402898
vn 0.18985159 -0.34455248 0.91936933
vn 0.09471529 -0.41779692 0.90358992
vn 0.01825366 0.45202370 0.89181914
vn 0.45202370 0.01825365 0.89181914
vn 0.09471607 0.41779586 0.90359033
vn 0.18985186 0.34455092 0.91936986
vn 0.27034141 0.27034172 0.92402970
vn 0.34455059 0.18985180 0.91936999
vn 0.41779582 0.09471589 0.90359037
vn -0.02014490 -0.45671097 -0.88938702
vn -0.45671093 -0.02014483 -0.88938704
vn -0.09948860 -0.42771275 -0.89842297
vn -0.19869982 -0.35811780 -0.91228834
vn -0.28287284 -0.28287274 -0.91649658
vn -0.35811785 -0.19869990 -0.91228831
vn -0.42771256 -0.09948866 -0.89842304
vn -0.03678847 -0.46381974 -0.88516544
vn -0.46381992 -0.03678843 -0.88516535
vn -0.11544991 -0.40005981 -0.90918835
vn -0.19853304 -0.33601802 -0.92069350
vn -0.27016962 -0.27016969 -0.92413025
vn -0.33601805 -0.19853288 -0.92069353
vn -0.40005987 -0.11545003 -0.90918832
vn -0.45671102 0.02014519 -0.88938699
vn -0.02014515 0.45671100 -0.88938700
vn -0.42771212 0.09948939 -0.89842318
vn -0.35811709 0.19870018 -0.91228855
vn -0.28287241 0.28287256 -0.91649676
vn -0.19870031 0.35811719 -0.91228848
vn -0.09948947 0.42771203 -0.89842321
vn -0.46381974 0.03678847 -0.88516544
vn -0.03678845 0.46381985 -0.88516539
vn -0.40005959 0.11545001 -0.90918844
vn -0.33601800 0.19853296 -0.92069353
vn -0.27016951 0.27016938 -0.92413037
vn -0.19853270 0.33601801 -0.92069358
vn -0.11545011 0.40005958 -0.90918843
vn 0.45671102 -0.02014519 -0.88938699
vn 0.02014515 -0.45671100 -0.88938700
vn 0.00000000 0.00000000 -1.00000000
vn 0.73047320 -0.16991414 -0.66146662
vn 0.00000000 0.00000000 -1.00000000
vn 0.61870422 -0.34328616 -0.70665388
vn 0.00000000 0.00000000 -1.00000000
vn 0.49039178 -0.49039204 -0.72043844
vn 0.00000000 0.00000000 -1.00000000
vn 0.34328636 -0.61870437 -0.70665365
vn 0.00000000 0.00000000 -1.00000000
vn 0.16991427 -0.73047306 -0.66146674
vn 0.46381974 -0.03678847 -0.88516544
vn 0.03678845 -0.46381985 -0.88516539
vn 0.08241990 -0.01767131 -0.99644101
vn 0.70725904 -0.21114915 -0.67468562
vn 0.06458894 -0.03513103 -0.99729338
vn 0.60505994 -0.36099707 -0.70963623
vn 0.04324762 -0.05636139 -0.99747333
vn 0.05636208 -0.04324749 -0.99747329
vn 0.42406275 -0.55265768 -0.71745402
vn 0.55265773 -0.42406324 -0.71745370
vn 0.03513066 -0.06458927 -0.99729337
vn 0.36099701 -0.60505965 -0.70963651
vn 0.01767141 -0.08242000 -0.99644100
vn 0.21114926 -0.70725895 -0.67468568
vn 0.02014519 0.45671102 -0.88938699
vn 0.45671100 0.02014515 -0.88938700
vn 0.00000000 0.00000000 -1.00000000
vn 0.16991414 0.73047320 -0.66146662
vn 0.00000000 0.00000000 -1.00000000
vn 0.34328616 0.61870422 -0.70665388
vn 0.00000000 0.00000000 -1.00000000
vn 0.49039204 0.49039178 -0.72043844
vn 0.00000000 0.00000000 -1.00000000
vn 0.61870437 0.34328636 -0.70665365
vn 0.00000000 0.00000000 -1.00000000
vn 0.73047306 0.16991427 -0.66146674
vn 0.03678847 0.46381974 -0.88516544
vn 0.46381985 0.03678845 -0.88516539
vn 0.01767131 0.08241990 -0.99644101
vn 0.21114915 0.70725904 -0.67468562
vn 0.03513103 0.06458894 -0.99729338
vn 0.36099707 0.60505994 -0.70963623
vn 0.04324749 0.05636208 -0.99747329
vn 0.05636139 0.04324762 -0.99747333
vn 0.42406324 0.55265773 -0.71745370
vn 0.55265768 0.42406275 -0.71745402
vn 0.06458927 0.03513066 -0.99729337
vn 0.60505965 0.36099701 -0.70963651
vn 0.08242000 0.01767141 -0.99644100
vn 0.70725895 0.21114926 -0.67468568
vn -0.94000347 -0.07085889 0.33372518
vn -0.07085814 -0.94000333 0.33372574
vn -0.96606355 -0.25829638 0.00204913
vn -0.68728580 -0.20867447 0.69576806
vn -0.86616150 -0.49975300 0.00334745
vn -0.58266861 -0.34952252 0.73371064
vn -0.55928471 -0.72887681 0.39489139
vn -0.72887637 -0.55928548 0.39489112
vn -0.34952365 -0.58266993 0.73370905
vn -0.49975434 -0.86616070 0.00335330
vn -0.20867559 -0.68728439 0.69576912
vn -0.25829925 -0.96606278 0.00204957
vn -0.07085849 0.94000688 0.33371565
vn -0.94000684 0.07085822 0.33371582
vn -0.25255302 0.89572941 0.36590409
vn -0.46543304 0.79444138 0.39017300
vn -0.64876399 0.64876384 0.39775717
vn -0.79444195 0.46543228 0.39017276
vn -0.89572943 0.25255380 0.36590349
vn 0.94000688 0.07085849 0.33371565
vn 0.07085834 0.94000685 0.33371578
vn 0.89572932 0.25255317 0.36590420
vn 0.79444133 0.46543263 0.39017359
vn 0.64876351 0.64876359 0.39775837
vn 0.46543225 0.79444148 0.39017375
vn 0.25255385 0.89572905 0.36590439
vn 0.07085839 -0.94000691 0.33371560
vn 0.94000685 -0.07085834 0.33371578
vn 0.25255324 -0.89572950 0.36590371
vn 0.46543264 -0.79444165 0.39017295
vn 0.64876382 -0.64876421 0.39775684
vn 0.79444176 -0.46543262 0.39017275
vn 0.89572907 -0.25255364 0.36590447
vn 0.21286332 0.01959726 0.97688544
vn 0.01959762 0.21286274 0.97688555
vn 0.00000353 0.00000076 1.00000000
vn 0.36958919 0.11365478 0.92221821
vn 0.00000276 0.00000150 1.00000000
vn 0.30560017 0.18397233 0.93421771
vn 0.09956404 0.12975464 0.98653471
vn 0.12975463 0.09956429 0.98653469
vn 0.00000150 0.00000276 1.00000000
vn 0.18397267 0.30559986 0.93421774
vn 0.00000076 0.00000353 1.00000000
vn 0.11365434 0.36958972 0.92221805
vn 0.04172536 0.62540842 0.77918117
vn 0.62540841 0.04172519 0.77918119
vn 0.21139666 0.70821261 0.67360697
vn 0.08642072 0.39321678 0.91537534
vn 0.17288564 0.31598162 0.93288058
vn 0.36151995 0.60596235 0.70859929
vn 0.31846908 0.41503656 0.85224533
vn 0.41503627 0.31846923 0.85224541
vn 0.31598214 0.17288524 0.93288048
vn 0.60596244 0.36151998 0.70859920
vn 0.70821265 0.21139659 0.67360695
vn 0.39321606 0.08642136 0.91537559
vn 0.62541654 -0.04172579 0.77917464
vn 0.04172568 -0.62541643 0.77917473
vn 0.55218857 -0.14794071 0.82048847
vn 0.46078141 -0.26636452 0.84659934
vn 0.36761585 -0.36761571 0.85423491
vn 0.26636444 -0.46078155 0.84659928
vn 0.14794099 -0.55218831 0.82048860
vn 0.01959859 -0.21288187 0.97688137
vn 0.21288019 -0.01959890 0.97688173
vn 0.05330058 -0.17332990 0.98342046
vn 0.08596866 -0.14280520 0.98601017
vn 0.11469566 -0.11469553 0.98675724
vn 0.14280460 -0.08596886 0.98601024
vn 0.17332911 -0.05330019 0.98342062
vn -0.04172578 -0.62541654 0.77917463
vn -0.62541643 -0.04172568 0.77917473
vn -0.14794072 -0.55218857 0.82048847
vn -0.26636452 -0.46078141 0.84659934
vn -0.36761571 -0.36761585 0.85423491
vn -0.46078155 -0.26636444 0.84659928
vn -0.55218831 -0.14794099 0.82048860
vn -0.21288187 -0.01959859 0.97688137
vn -0.01959884 -0.21288138 0.97688147
vn -0.17332990 -0.05330058 0.98342046
vn -0.14280520 -0.08596866 0.98601017
vn -0.11469553 -0.11469566 0.98675724
vn -0.08596878 -0.14280505 0.98601019
vn -0.05330039 -0.17333005 0.98342044
vn -0.62541654 0.04172578 0.77917463
vn -0.04172576 0.62541635 0.77917479
vn -0.55218857 0.14794072 0.82048847
vn -0.46078141 0.26636452 0.84659934
vn -0.36761585 0.36761571 0.85423491
vn -0.26636444 0.46078155 0.84659928
vn -0.14794099 0.55218831 0.82048860
vn -0.01959879 0.21288054 0.97688165
vn -0.21288138 0.01959884 0.97688147
vn -0.05330056 0.17332899 0.98342062
vn -0.08596866 0.14280520 0.98601017
vn -0.11469566 0.11469553 0.98675724
vn -0.14280505 0.08596878 0.98601019
vn -0.17333005 0.05330039 0.98342044
vn -0.44572339 -0.02008889 -0.89494530
vn -0.02008894 -0.44572345 -0.89494527
vn -0.40459551 -0.09412555 -0.90963886
vn -0.33126025 -0.18377294 -0.92546969
vn -0.25982151 -0.25982126 -0.93004607
vn -0.18377233 -0.33126129 -0.92546944
vn -0.09412598 -0.40459592 -0.90963863
vn -0.06310586 -0.70175647 -0.70961645
vn -0.06578453 -0.99783367 0.00060348
vn -0.70175682 -0.06310557 -0.70961613
vn -0.99783354 -0.06578646 0.00060514
vn -0.18899976 -0.61997846 -0.76151546
vn -0.25934239 -0.96578326 0.00205572
vn -0.31343826 -0.52191633 -0.79332201
vn -0.50023849 -0.86588116 0.00335555
vn -0.42157434 -0.42157382 -0.80283908
vn -0.60875574 -0.79334877 0.00376443
vn -0.79334825 -0.60875644 0.00376278
vn -0.52191580 -0.31343963 -0.79332181
vn -0.86588105 -0.50023874 0.00334951
vn -0.61998053 -0.18899880 -0.76151401
vn -0.96578373 -0.25934063 0.00205796
vn -0.70175708 0.06310448 -0.70961597
vn -0.99783369 0.06578422 0.00060445
vn -0.06310525 0.70175613 -0.70961684
vn -0.06578460 0.99783366 0.00060475
vn -0.61997550 0.18899760 -0.76151841
vn -0.96578396 0.25933968 0.00206617
vn -0.52191156 0.31343575 -0.79332613
vn -0.86588118 0.50023839 0.00336727
vn -0.42157035 0.42157078 -0.80284277
vn -0.70710179 0.70710152 0.00380747
vn -0.31343678 0.52191112 -0.79332602
vn -0.50023852 0.86588111 0.00336450
vn -0.18899637 0.61997694 -0.76151754
vn -0.25933901 0.96578414 0.00206714
vn -0.02008884 0.44572336 -0.89494532
vn -0.44572335 0.02008861 -0.89494533
vn -0.09412432 0.40459351 -0.90963987
vn -0.18377141 0.33125745 -0.92547100
vn -0.25981900 0.25981914 -0.93004737
vn -0.33125812 0.18377099 -0.92547084
vn -0.40459314 0.09412509 -0.90963996
vn 0.06310448 0.70175708 -0.70961597
vn 0.06578430 0.99783368 0.00060452
vn 0.92295546 0.06983876 -0.37851784
vn 0.18899760 0.61997550 -0.76151841
vn 0.25933985 0.96578391 0.00206736
vn 0.31343575 0.52191156 -0.79332613
vn 0.50023839 0.86588118 0.00336727
vn 0.36494832 0.47560798 -0.80038102
vn 0.47560807 0.36494755 -0.80038131
vn 0.70710180 0.70710151 0.00380778
vn 0.52191112 0.31343678 -0.79332602
vn 0.86588079 0.50023907 0.00336700
vn 0.61997694 0.18899637 -0.76151754
vn 0.96578414 0.25933901 0.00206714
vn 0.44572336 0.02008884 -0.89494532
vn 0.02008861 0.44572335 -0.89494533
vn 0.64986829 0.14599159 -0.74589387
vn 0.07621476 0.02372448 -0.99680914
vn 0.53723588 0.29538709 -0.79001524
vn 0.06213898 0.03754896 -0.99736093
vn 0.22535005 0.29368086 -0.92896120
vn 0.29368131 0.22535022 -0.92896101
vn 0.29538608 0.53723733 -0.79001462
vn 0.03754920 0.06213859 -0.99736094
vn 0.14599306 0.64986742 -0.74589433
vn 0.02372438 0.07621514 -0.99680911
vn 0.92295569 -0.06983816 -0.37851739
vn 0.06310525 -0.70175613 -0.70961684
vn 0.06578460 -0.99783366 0.00060475
vn 0.61997550 -0.18899760 -0.76151841
vn 0.96578398 -0.25933960 0.00206716
vn 0.52191156 -0.31343575 -0.79332613
vn 0.86588117 -0.50023841 0.00336489
vn 0.36494755 -0.47560807 -0.80038131
vn 0.47560798 -0.36494832 -0.80038102
vn 0.70710151 -0.70710180 0.00380778
vn 0.31343678 -0.52191112 -0.79332602
vn 0.50023928 -0.86588066 0.00336680
vn 0.18899637 -0.61997694 -0.76151754
vn 0.25933852 -0.96578428 0.00206582
vn 0.02008884 -0.44572336 -0.89494532
vn 0.44572335 -0.02008861 -0.89494533
vn 0.14599159 -0.64986829 -0.74589387
vn 0.02372448 -0.07621476 -0.99680914
vn 0.29538709 -0.53723588 -0.79001524
vn 0.03754896 -0.06213898 -0.99736093
vn 0.22535022 -0.29368131 -0.92896101
vn 0.29368086 -0.22535005 -0.92896120
vn 0.53723733 -0.29538608 -0.79001462
vn 0.06213859 -0.03754920 -0.99736094
vn 0.64986742 -0.14599306 -0.74589433
vn 0.07621514 -0.02372438 -0.99680911
vn 0.13032111 0.00756938 0.99144294
vn 0.70660825 0.04195763 0.70635992
vn 0.61966266 0.00000000 0.78486826
vn 0.58859837 0.07722737 0.80472846
vn 0.24398147 0.03187413 0.96925594
vn 0.25172692 0.00000000 0.96779831
vn 0.00746621 0.13025925 0.99145186
vn 0.04185505 0.70672037 0.70625383
vn 0.07683260 0.58845617 0.80487023
vn 0.00000000 0.61966266 0.78486826
vn 0.00000000 0.25172692 0.96779831
vn 0.03153938 0.24440582 0.96915998
vn 0.12682197 0.03226802 0.99140051
vn 0.64902892 0.16585950 0.74246353
vn 0.58826854 0.07678942 0.80501150
vn 0.51409230 0.21267192 0.83095112
vn 0.21944703 0.09061607 0.97140709
vn 0.24353882 0.03142451 0.96938194
vn 0.11050754 0.06279324 0.99188966
vn 0.55138195 0.31387081 0.77295734
vn 0.51387405 0.21218873 0.83120960
vn 0.42693574 0.32747747 0.84290235
vn 0.18486743 0.14172514 0.97249063
vn 0.21915105 0.09009380 0.97152248
vn 0.08896860 0.08890253 0.99205893
vn 0.38112828 0.49683435 0.77967741
vn 0.49684066 0.38105651 0.77970847
vn 0.32731276 0.42672134 0.84307488
vn 0.42689266 0.32727487 0.84300286
vn 0.14167925 0.18480893 0.97250843
vn 0.18480491 0.14149884 0.97253546
vn 0.06279643 0.11034893 0.99190711
vn 0.31393903 0.55142622 0.77289806
vn 0.32731227 0.42693948 0.84296463
vn 0.21239195 0.51341902 0.83143886
vn 0.09053387 0.21926496 0.97145586
vn 0.14168635 0.18504907 0.97246173
vn 0.03224252 0.12663146 0.99142569
vn 0.16586953 0.64915203 0.74235365
vn 0.21226057 0.51402290 0.83109922
vn 0.07712302 0.58781444 0.80531126
vn 0.03183123 0.24374958 0.96931570
vn 0.09040247 0.21989410 0.97132589
vn 0.00756934 -0.13032111 0.99144295
vn 0.04195758 -0.70660802 0.70636015
vn 0.00000000 -0.61966266 0.78486826
vn 0.07722855 -0.58859786 0.80472872
vn 0.00000000 -0.25172692 0.96779831
vn 0.03187425 -0.24398192 0.96925583
vn 0.13025924 -0.00746622 0.99145186
vn 0.70672040 -0.04185510 0.70625380
vn 0.58845619 -0.07683278 0.80487020
vn 0.61966266 0.00000000 0.78486826
vn 0.24440572 -0.03153947 0.96916000
vn 0.25172692 0.00000000 0.96779831
vn 0.03226841 -0.12682246 0.99140043
vn 0.16585922 -0.64902839 0.74246405
vn 0.07678909 -0.58826691 0.80501272
vn 0.21266976 -0.51409067 0.83095268
vn 0.03142515 -0.24353978 0.96938168
vn 0.09061635 -0.21944703 0.97140706
vn 0.06279268 -0.11050716 0.99188973
vn 0.31387122 -0.55138206 0.77295710
vn 0.21218930 -0.51387365 0.83120970
vn 0.32747784 -0.42693740 0.84290137
vn 0.09009289 -0.21915037 0.97152271
vn 0.14172421 -0.18486745 0.97249076
vn 0.08890264 -0.08896870 0.99205891
vn 0.44042294 -0.44046242 0.78231739
vn 0.32727414 -0.42689408 0.84300242
vn 0.42672194 -0.32731211 0.84307483
vn 0.14149862 -0.18480513 0.97253545
vn 0.18480920 -0.14167881 0.97250845
vn 0.11034842 -0.06279641 0.99190717
vn 0.55142628 -0.31393909 0.77289799
vn 0.42694057 -0.32731161 0.84296433
vn 0.51341871 -0.21239314 0.83143874
vn 0.18504911 -0.14168591 0.97246179
vn 0.21926416 -0.09053434 0.97145600
vn 0.12663138 -0.03224270 0.99142569
vn 0.64915166 -0.16587038 0.74235378
vn 0.51402230 -0.21226182 0.83109927
vn 0.58781433 -0.07712326 0.80531132
vn 0.21989370 -0.09040287 0.97132594
vn 0.24374946 -0.03183132 0.96931572
vn -0.13032111 -0.00756934 0.99144295
vn -0.70660802 -0.04195758 0.70636015
vn -0.44359290 -0.02423280 0.89590073
vn -0.00746622 -0.13025924 0.99145186
vn -0.04185503 -0.70672042 0.70625378
vn -0.07683270 -0.58845616 0.80487023
vn 0.00000000 -0.61966266 0.78486826
vn -0.03153947 -0.24440572 0.96916000
vn 0.00000000 -0.25172692 0.96779831
vn -0.12682246 -0.03226841 0.99140043
vn -0.64902839 -0.16585922 0.74246405
vn -0.41408304 -0.10291608 0.90440230
vn -0.11050716 -0.06279268 0.99188973
vn -0.55138206 -0.31387122 0.77295710
vn -0.42693740 -0.32747784 0.84290137
vn -0.39269408 -0.16197706 0.90529265
vn -0.18486745 -0.14172421 0.97249076
vn -0.08896870 -0.08890264 0.99205891
vn -0.44046242 -0.44042294 0.78231739
vn -0.42689408 -0.32727414 0.84300242
vn -0.32731211 -0.42672194 0.84307483
vn -0.18480513 -0.14149862 0.97253545
vn -0.14167881 -0.18480920 0.97250845
vn -0.06279641 -0.11034842 0.99190717
vn -0.31393920 -0.55142616 0.77289803
vn -0.32731161 -0.42694057 0.84296433
vn -0.21239314 -0.51341871 0.83143874
vn -0.14168591 -0.18504911 0.97246179
vn -0.09053434 -0.21926416 0.97145600
vn -0.03224270 -0.12663138 0.99142569
vn -0.16587050 -0.64915149 0.74235391
vn -0.21226190 -0.51402194 0.83109947
vn -0.07712324 -0.58781416 0.80531144
vn -0.09040287 -0.21989370 0.97132594
vn -0.03183132 -0.24374946 0.96931572
vn -0.00756934 0.13032111 0.99144295
vn -0.04195758 0.70660802 0.70636015
vn 0.00000000 0.61966266 0.78486826
vn -0.07722855 0.58859786 0.80472872
vn -0.03187425 0.24398192 0.96925583
vn 0.00000000 0.25172692 0.96779831
vn -0.13025924 0.00746622 0.99145186
vn -0.70672042 0.04185503 0.70625378
vn -0.44366382 0.02406089 0.89587024
vn -0.03226841 0.12682246 0.99140043
vn -0.16585922 0.64902839 0.74246405
vn -0.07678909 0.58826691 0.80501272
vn -0.21266976 0.51409067 0.83095268
vn -0.09061635 0.21944703 0.97140706
vn -0.03142515 0.24353978 0.96938168
vn -0.06279268 0.11050716 0.99188973
vn -0.31387122 0.55138206 0.77295710
vn -0.21218930 0.51387365 0.83120970
vn -0.32747784 0.42693740 0.84290137
vn -0.14172421 0.18486745 0.97249076
vn -0.09009289 0.21915037 0.97152271
vn -0.08890264 0.08896870 0.99205891
vn -0.44042294 0.44046242 0.78231739
vn -0.32727414 0.42689408 0.84300242
vn -0.42672194 0.32731211 0.84307483
vn -0.18480920 0.14167881 0.97250845
vn -0.14149862 0.18480513 0.97253545
vn -0.11034842 0.06279641 0.99190717
vn -0.55142616 0.31393920 0.77289803
vn -0.42694057 0.32731161 0.84296433
vn -0.39245689 0.16227799 0.90534162
vn -0.18504911 0.14168591 0.97246179
vn -0.12663138 0.03224270 0.99142569
vn -0.64915149 0.16587050 0.74235391
vn -0.41404499 0.10295428 0.90441537
f 28//28 20//20 141//141
f 28//28 141//141 133//133
f 27//27 14//14 178//178
f 27//27 178//178 193//193
f 74//74 101//101 270//270
f 74//74 270//270 297//297
f 238//238 126//126 134//134
f 238//238 134//134 257//257
f 1//1 21//21 206//206
f 1//1 206//206 148//148
f 100//100 56//56 249//249
f 100//100 249//249 271//271
f 35//35 48//48 50//50
f 50//50 51//51 52//52
f 52//52 53//53 54//54
f 54//54 49//49 88//88
f 88//88 90//90 92//92
f 92//92 94//94 96//96
f 96//96 98//98 89//89
f 89//89 62//62 64//64
f 64//64 66//66 68//68
f 68//68 70//70 72//72
f 72//72 63//63 34//34
f 34//34 36//36 37//37
f 37//37 38//38 39//39
f 39//39 40//40 35//35
f 35//35 50//50 52//52
f 52//52 54//54 88//88
f 88//88 92//92 96//96
f 96//96 89//89 64//64
f 64//64 68//68 72//72
f 72//72 34//34 37//37
f 37//37 39//39 35//35
f 35//35 52//52 88//88
f 88//88 96//96 64//64
f 64//64 72//72 37//37
f 37//37 35//35 88//88
f 88//88 64//64 37//37
f 55//55 42//42 213//213
f 55//55 213//213 250//250
f 48//48 35//35 42//42
f 48//48 42//42 55//55
f 388//388 173//173 171//171
f 388//388 171//171 358//358
f 423//423 187//187 185//185
f 423//423 185//185 397//397
f 223//223 114//114 127//127
f 223//223 127//127 236//236
f 168//168 327//327 321//321
f 168//168 321//321 169//169
f 2//2 13//13 127//127
f 2//2 127//127 114//114
f 21//21 1//1 115//115
f 21//21 115//115 140//140
f 14//14 27//27 134//134
f 14//14 134//134 126//126
f 75//75 41//41 34//34
f 75//75 34//34 63//63
f 284//284 140//140 115//115
f 284//284 115//115 221//221
f 434//434 393//393 402//402
f 402//402 405//405 410//410
f 410//410 416//416 422//422
f 422//422 396//396 351//351
f 351//351 363//363 369//369
f 369//369 375//375 381//381
f 381//381 387//387 357//357
f 357//357 308//308 320//320
f 320//320 326//326 332//332
f 332//332 339//339 345//345
f 345//345 314//314 428//428
f 428//428 437//437 443//443
f 443//443 449//449 455//455
f 455//455 460//460 434//434
f 434//434 402//402 410//410
f 410//410 422//422 351//351
f 351//351 369//369 381//381
f 381//381 357//357 320//320
f 320//320 332//332 345//345
f 345//345 428//428 443//443
f 443//443 455//455 434//434
f 434//434 410//410 351//351
f 351//351 381//381 320//320
f 320//320 345//345 443//443
f 443//443 434//434 351//351
f 351//351 320//320 443//443
f 62//62 89//89 101//101
f 62//62 101//101 74//74
f 258//258 133//133 141//141
f 258//258 141//141 282//282
f 41//41 75//75 296//296
f 41//41 296//296 214//214
f 200//200 159//159 148//148
f 200//200 148//148 206//206
f 20//20 28//28 192//192
f 20//20 192//192 207//207
f 172//172 185//185 193//193
f 172//172 193//193 178//178
f 186//186 199//199 207//207
f 186//186 207//207 192//192
f 283//283 220//220 214//214
f 283//283 214//214 296//296
f 160//160 171//171 179//179
f 160//160 179//179 147//147
f 159//159 315//315 346//346
f 159//159 346//346 161//161
f 237//237 256//256 271//271
f 237//237 271//271 249//249
f 258//258 282//282 297//297
f 258//258 297//297 270//270
f 222//222 235//235 250//250
f 222//222 250//250 213//213
f 88//88 49//49 56//56
f 88//88 56//56 100//100
f 56//56 49//49 54//54
f 56//56 54//54 61//61
f 61//61 54//54 53//53
f 61//61 53//53 60//60
f 60//60 53//53 52//52
f 60//60 52//52 59//59
f 59//59 52//52 51//51
f 59//59 51//51 58//58
f 58//58 51//51 50//50
f 58//58 50//50 57//57
f 57//57 50//50 48//48
f 57//57 48//48 55//55
f 34//34 41//41 43//43
f 34//34 43//43 36//36
f 36//36 43//43 44//44
f 36//36 44//44 37//37
f 37//37 44//44 45//45
f 37//37 45//45 38//38
f 38//38 45//45 46//46
f 38//38 46//46 39//39
f 39//39 46//46 47//47
f 39//39 47//47 40//40
f 40//40 47//47 42//42
f 40//40 42//42 35//35
f 101//101 89//89 99//99
f 101//101 99//99 113//113
f 113//113 99//99 97//97
f 113//113 97//97 111//111
f 111//111 97//97 95//95
f 111//111 95//95 109//109
f 108//108 95//95 93//93
f 108//108 93//93 105//105
f 105//105 93//93 91//91
f 105//105 91//91 103//103
f 103//103 91//91 88//88
f 103//103 88//88 100//100
f 75//75 63//63 73//73
f 75//75 73//73 87//87
f 87//87 73//73 71//71
f 87//87 71//71 85//85
f 85//85 71//71 69//69
f 85//85 69//69 82//82
f 83//83 69//69 67//67
f 83//83 67//67 79//79
f 79//79 67//67 65//65
f 79//79 65//65 77//77
f 77//77 65//65 62//62
f 77//77 62//62 74//74
f 115//115 1//1 4//4
f 115//115 4//4 124//124
f 124//124 4//4 6//6
f 124//124 6//6 122//122
f 122//122 6//6 7//7
f 122//122 7//7 120//120
f 121//121 8//8 10//10
f 121//121 10//10 119//119
f 119//119 10//10 12//12
f 119//119 12//12 117//117
f 117//117 12//12 2//2
f 117//117 2//2 114//114
f 14//14 126//126 128//128
f 14//14 128//128 19//19
f 19//19 128//128 129//129
f 19//19 129//129 18//18
f 18//18 129//129 130//130
f 18//18 130//130 17//17
f 17//17 130//130 131//131
f 17//17 131//131 16//16
f 16//16 131//131 132//132
f 16//16 132//132 15//15
f 15//15 132//132 127//127
f 15//15 127//127 13//13
f 141//141 20//20 22//22
f 141//141 22//22 146//146
f 146//146 22//22 23//23
f 146//146 23//23 145//145
f 145//145 23//23 24//24
f 145//145 24//24 144//144
f 144//144 24//24 25//25
f 144//144 25//25 143//143
f 143//143 25//25 26//26
f 143//143 26//26 142//142
f 142//142 26//26 21//21
f 142//142 21//21 140//140
f 28//28 133//133 135//135
f 28//28 135//135 33//33
f 33//33 135//135 136//136
f 33//33 136//136 32//32
f 32//32 136//136 137//137
f 32//32 137//137 31//31
f 31//31 137//137 138//138
f 31//31 138//138 30//30
f 30//30 138//138 139//139
f 30//30 139//139 29//29
f 29//29 139//139 134//134
f 29//29 134//134 27//27
f 148//148 159//159 162//162
f 148//148 162//162 158//158
f 158//158 162//162 163//163
f 158//158 163//163 156//156
f 156//156 163//163 165//165
f 156//156 165//165 153//153
f 154//154 166//166 167//167
f 154//154 167//167 152//152
f 152//152 167//167 170//170
f 152//152 170//170 150//150
f 150//150 170//170 160//160
f 150//150 160//160 147//147
f 172//172 178//178 180//180
f 172//172 180//180 177//177
f 177//177 180//180 181//181
f 177//177 181//181 176//176
f 176//176 181//181 182//182
f 176//176 182//182 175//175
f 175//175 182//182 183//183
f 175//175 183//183 174//174
f 174//174 183//183 184//184
f 174//174 184//184 173//173
f 173//173 184//184 179//179
f 173//173 179//179 171//171
f 186//186 192//192 194//194
f 186//186 194//194 191//191
f 191//191 194//194 195//195
f 191//191 195//195 190//190
f 190//190 195//195 196//196
f 190//190 196//196 189//189
f 189//189 196//196 197//197
f 189//189 197//197 188//188
f 188//188 197//197 198//198
f 188//188 198//198 187//187
f 187//187 198//198 193//193
f 187//187 193//193 185//185
f 200//200 206//206 208//208
f 200//200 208//208 205//205
f 205//205 208//208 209//209
f 205//205 209//209 204//204
f 204//204 209//209 210//210
f 204//204 210//210 203//203
f 203//203 210//210 211//211
f 203//203 211//211 202//202
f 202//202 211//211 212//212
f 202//202 212//212 201//201
f 201//201 212//212 207//207
f 201//201 207//207 199//199
f 185//185 172//172 352//352
f 185//185 352//352 397//397
f 370//370 176//176 175//175
f 370//370 175//175 376//376
f 376//376 175//175 174//174
f 376//376 174//174 382//382
f 382//382 174//174 173//173
f 382//382 173//173 388//388
f 394//394 186//186 191//191
f 394//394 191//191 403//403
f 364//364 177//177 176//176
f 364//364 176//176 370//370
f 159//159 200//200 429//429
f 159//159 429//429 315//315
f 352//352 172//172 177//177
f 352//352 177//177 364//364
f 161//161 346//346 340//340
f 161//161 340//340 164//164
f 164//164 340//340 333//333
f 164//164 333//333 165//165
f 166//166 334//334 327//327
f 166//166 327//327 168//168
f 171//171 160//160 309//309
f 171//171 309//309 358//358
f 178//178 14//14 19//19
f 178//178 19//19 180//180
f 180//180 19//19 18//18
f 180//180 18//18 181//181
f 181//181 18//18 17//17
f 181//181 17//17 182//182
f 182//182 17//17 16//16
f 182//182 16//16 183//183
f 183//183 16//16 15//15
f 183//183 15//15 184//184
f 184//184 15//15 13//13
f 184//184 13//13 179//179
f 1//1 148//148 157//157
f 1//1 157//157 3//3
f 3//3 157//157 155//155
f 3//3 155//155 5//5
f 5//5 155//155 153//153
f 5//5 153//153 7//7
f 8//8 154//154 151//151
f 8//8 151//151 9//9
f 9//9 151//151 149//149
f 9//9 149//149 11//11
f 11//11 149//149 147//147
f 11//11 147//147 2//2
f 204//204 444//444 438//438
f 204//204 438//438 205//205
f 201//201 461//461 456//456
f 201//201 456//456 202//202
f 202//202 456//456 450//450
f 202//202 450//450 203//203
f 203//203 450//450 444//444
f 203//203 444//444 204//204
f 199//199 435//435 461//461
f 199//199 461//461 201//201
f 20//20 207//207 212//212
f 20//20 212//212 22//22
f 22//22 212//212 211//211
f 22//22 211//211 23//23
f 23//23 211//211 210//210
f 23//23 210//210 24//24
f 24//24 210//210 209//209
f 24//24 209//209 25//25
f 25//25 209//209 208//208
f 25//25 208//208 26//26
f 26//26 208//208 206//206
f 26//26 206//206 21//21
f 199//199 186//186 394//394
f 199//199 394//394 435//435
f 406//406 190//190 189//189
f 406//406 189//189 411//411
f 411//411 189//189 188//188
f 411//411 188//188 417//417
f 417//417 188//188 187//187
f 417//417 187//187 423//423
f 205//205 438//438 429//429
f 205//205 429//429 200//200
f 403//403 191//191 190//190
f 403//403 190//190 406//406
f 192//192 28//28 33//33
f 192//192 33//33 194//194
f 194//194 33//33 32//32
f 194//194 32//32 195//195
f 195//195 32//32 31//31
f 195//195 31//31 196//196
f 196//196 31//31 30//30
f 196//196 30//30 197//197
f 197//197 30//30 29//29
f 197//197 29//29 198//198
f 198//198 29//29 27//27
f 198//198 27//27 193//193
f 214//214 220//220 224//224
f 214//214 224//224 219//219
f 219//219 224//224 226//226
f 219//219 226//226 218//218
f 218//218 226//226 228//228
f 218//218 228//228 217//217
f 217//217 228//228 231//231
f 217//217 231//231 216//216
f 216//216 231//231 233//233
f 216//216 233//233 215//215
f 215//215 233//233 222//222
f 215//215 222//222 213//213
f 237//237 249//249 251//251
f 237//237 251//251 247//247
f 247//247 251//251 252//252
f 247//247 252//252 245//245
f 245//245 252//252 253//253
f 245//245 253//253 243//243
f 243//243 253//253 254//254
f 243//243 254//254 241//241
f 241//241 254//254 255//255
f 241//241 255//255 239//239
f 239//239 255//255 250//250
f 239//239 250//250 235//235
f 258//258 270//270 272//272
f 258//258 272//272 268//268
f 268//268 272//272 274//274
f 268//268 274//274 266//266
f 266//266 274//274 277//277
f 266//266 277//277 264//264
f 263//263 276//276 278//278
f 263//263 278//278 261//261
f 261//261 278//278 280//280
f 261//261 280//280 259//259
f 259//259 280//280 271//271
f 259//259 271//271 256//256
f 283//283 296//296 298//298
f 283//283 298//298 294//294
f 294//294 298//298 300//300
f 294//294 300//300 292//292
f 292//292 300//300 302//302
f 292//292 302//302 289//289
f 290//290 303//303 304//304
f 290//290 304//304 287//287
f 287//287 304//304 306//306
f 287//287 306//306 285//285
f 285//285 306//306 297//297
f 285//285 297//297 282//282
f 213//213 42//42 47//47
f 213//213 47//47 215//215
f 215//215 47//47 46//46
f 215//215 46//46 216//216
f 216//216 46//46 45//45
f 216//216 45//45 217//217
f 217//217 45//45 44//44
f 217//217 44//44 218//218
f 218//218 44//44 43//43
f 218//218 43//43 219//219
f 219//219 43//43 41//41
f 219//219 41//41 214//214
f 74//74 297//297 307//307
f 74//74 307//307 76//76
f 76//76 307//307 305//305
f 76//76 305//305 78//78
f 78//78 305//305 303//303
f 78//78 303//303 81//81
f 80//80 302//302 301//301
f 80//80 301//301 84//84
f 84//84 301//301 299//299
f 84//84 299//299 86//86
f 86//86 299//299 296//296
f 86//86 296//296 75//75
f 249//249 56//56 61//61
f 249//249 61//61 251//251
f 251//251 61//61 60//60
f 251//251 60//60 252//252
f 252//252 60//60 59//59
f 252//252 59//59 253//253
f 253//253 59//59 58//58
f 253//253 58//58 254//254
f 254//254 58//58 57//57
f 254//254 57//57 255//255
f 255//255 57//57 55//55
f 255//255 55//55 250//250
f 282//282 141//141 146//146
f 282//282 146//146 286//286
f 286//286 146//146 145//145
f 286//286 145//145 288//288
f 288//288 145//145 144//144
f 288//288 144//144 291//291
f 291//291 144//144 143//143
f 291//291 143//143 293//293
f 293//293 143//143 142//142
f 293//293 142//142 295//295
f 295//295 142//142 140//140
f 295//295 140//140 284//284
f 114//114 223//223 234//234
f 114//114 234//234 116//116
f 116//116 234//234 232//232
f 116//116 232//232 118//118
f 118//118 232//232 230//230
f 118//118 230//230 121//121
f 120//120 229//229 227//227
f 120//120 227//227 123//123
f 123//123 227//227 225//225
f 123//123 225//225 125//125
f 125//125 225//225 221//221
f 125//125 221//221 115//115
f 126//126 238//238 248//248
f 126//126 248//248 128//128
f 128//128 248//248 246//246
f 128//128 246//246 129//129
f 129//129 246//246 244//244
f 129//129 244//244 130//130
f 130//130 244//244 242//242
f 130//130 242//242 131//131
f 131//131 242//242 240//240
f 131//131 240//240 132//132
f 132//132 240//240 236//236
f 132//132 236//236 127//127
f 270//270 101//101 112//112
f 270//270 112//112 273//273
f 273//273 112//112 110//110
f 273//273 110//110 275//275
f 275//275 110//110 107//107
f 275//275 107//107 277//277
f 276//276 106//106 104//104
f 276//276 104//104 279//279
f 279//279 104//104 102//102
f 279//279 102//102 281//281
f 281//281 102//102 100//100
f 281//281 100//100 271//271
f 133//133 258//258 269//269
f 133//133 269//269 135//135
f 135//135 269//269 267//267
f 135//135 267//267 136//136
f 136//136 267//267 265//265
f 136//136 265//265 137//137
f 137//137 265//265 262//262
f 137//137 262//262 138//138
f 138//138 262//262 260//260
f 138//138 260//260 139//139
f 139//139 260//260 257//257
f 139//139 257//257 134//134
f 13//13 2//2 147//147
f 13//13 147//147 179//179
f 363//363 351//351 356//356
f 363//363 356//356 367//367
f 365//365 354//354 352//352
f 365//365 352//352 364//364
f 369//369 363//363 368//368
f 369//369 368//368 373//373
f 371//371 366//366 364//364
f 371//371 364//364 370//370
f 375//375 369//369 374//374
f 375//375 374//374 379//379
f 377//377 372//372 370//370
f 377//377 370//370 376//376
f 381//381 375//375 380//380
f 381//381 380//380 385//385
f 383//383 378//378 376//376
f 383//383 376//376 382//382
f 387//387 381//381 386//386
f 387//387 386//386 391//391
f 389//389 384//384 382//382
f 389//389 382//382 388//388
f 357//357 387//387 392//392
f 357//357 392//392 361//361
f 359//359 390//390 388//388
f 359//359 388//388 358//358
f 314//314 345//345 349//349
f 314//314 349//349 319//319
f 316//316 348//348 346//346
f 316//316 346//346 315//315
f 345//345 339//339 343//343
f 345//345 343//343 350//350
f 347//347 342//342 340//340
f 347//347 340//340 346//346
f 339//339 332//332 337//337
f 339//339 337//337 344//344
f 341//341 335//335 333//333
f 341//341 333//333 340//340
f 332//332 326//326 330//330
f 332//332 330//330 338//338
f 336//336 329//329 327//327
f 336//336 327//327 334//334
f 326//326 320//320 324//324
f 326//326 324//324 331//331
f 328//328 323//323 321//321
f 328//328 321//321 327//327
f 320//320 308//308 312//312
f 320//320 312//312 325//325
f 322//322 311//311 309//309
f 322//322 309//309 321//321
f 434//434 460//460 462//462
f 434//434 462//462 436//436
f 436//436 462//462 461//461
f 436//436 461//461 435//435
f 460//460 455//455 458//458
f 460//460 458//458 462//462
f 462//462 458//458 456//456
f 462//462 456//456 461//461
f 455//455 449//449 453//453
f 455//455 453//453 459//459
f 457//457 452//452 450//450
f 457//457 450//450 456//456
f 449//449 443//443 447//447
f 449//449 447//447 454//454
f 451//451 446//446 444//444
f 451//451 444//444 450//450
f 443//443 437//437 441//441
f 443//443 441//441 448//448
f 445//445 440//440 438//438
f 445//445 438//438 444//444
f 437//437 428//428 432//432
f 437//437 432//432 442//442
f 439//439 431//431 429//429
f 439//439 429//429 438//438
f 402//402 393//393 395//395
f 402//402 395//395 404//404
f 404//404 395//395 394//394
f 404//404 394//394 403//403
f 405//405 402//402 404//404
f 405//405 404//404 408//408
f 408//408 404//404 403//403
f 408//408 403//403 406//406
f 410//410 405//405 409//409
f 410//410 409//409 414//414
f 412//412 407//407 406//406
f 412//412 406//406 411//411
f 416//416 410//410 415//415
f 416//416 415//415 420//420
f 418//418 413//413 411//411
f 418//418 411//411 417//417
f 422//422 416//416 421//421
f 422//422 421//421 426//426
f 424//424 419//419 417//417
f 424//424 417//417 423//423
f 396//396 422//422 427//427
f 396//396 427//427 400//400
f 398//398 425//425 423//423
f 398//398 423//423 397//397
f 308//308 357//357 362//362
f 308//308 362//362 313//313
f 310//310 360//360 358//358
f 310//310 358//358 309//309
f 435//435 394//394 395//395
f 435//435 395//395 436//436
f 436//436 395//395 393//393
f 436//436 393//393 434//434
f 397//397 352//352 353//353
f 397//397 353//353 399//399
f 401//401 355//355 351//351
f 401//401 351//351 396//396
f 315//315 429//429 430//430
f 315//315 430//430 317//317
f 318//318 433//433 428//428
f 318//318 428//428 314//314
f 169//169 321//321 309//309
f 169//169 309//309 160//160

